<?xml version="1.0" encoding="UTF-8" standalone="no"?>
<!DOCTYPE svg PUBLIC "-//W3C//DTD SVG 1.1//EN" "http://www.w3.org/Graphics/SVG/1.1/DTD/svg11.dtd">
<!-- Created with Vectornator (http://vectornator.io/) -->
<svg height="100%" stroke-miterlimit="10" style="fill-rule:nonzero;clip-rule:evenodd;stroke-linecap:round;stroke-linejoin:round;" version="1.1" viewBox="0 0 3370.82 2384.24" width="100%" xml:space="preserve" xmlns="http://www.w3.org/2000/svg" xmlns:vectornator="http://vectornator.io" xmlns:xlink="http://www.w3.org/1999/xlink">
<defs/>
<clipPath id="ArtboardFrame">
<rect height="2384.24" width="3370.82" x="0" y="0"/>
</clipPath>
<g clip-path="url(#ArtboardFrame)" id="Calque-2" vectornator:layerName="Calque 2">
<path d="M805.447 413.411C805.447 413.411 770.664 442.869 770.664 446.608C770.664 450.347 798.082 476.18 798.082 476.18L810.206 465.416L809.412 415.111L805.447 413.411Z" fill="none" opacity="1" stroke="#00f6ff" stroke-linecap="butt" stroke-linejoin="round" stroke-width="2"/>
<path d="M758.88 461.337L743.358 477.54C743.358 477.54 770.21 478.786 771.797 478.333C773.383 477.879 758.88 461.337 758.88 461.337Z" fill="none" opacity="1" stroke="#00f6ff" stroke-linecap="butt" stroke-linejoin="round" stroke-width="2"/>
<path d="M943.351 396.882L858.513 424.563L814.306 486.318L864.601 531.012C864.601 531.012 883.782 516.907 886.85 513.319C889.917 509.731 870.267 541.658 870.267 541.658L885.441 550.303C885.441 550.303 925.768 503.441 928.148 500.74C930.527 498.039 955.262 410.099 955.262 410.099L943.351 396.882Z" fill="none" opacity="1" stroke="#00f6ff" stroke-linecap="butt" stroke-linejoin="round" stroke-width="2"/>
<path d="M971.205 418.487L945.934 503.454L1064.98 540.101L1080.05 508.593L971.205 418.487Z" fill="none" opacity="1" stroke="#00f6ff" stroke-linecap="butt" stroke-linejoin="round" stroke-width="2"/>
<path d="M935.362 521.112L900.772 557.648L897.925 564.249L951.789 613.133L1003.63 559.855L1008.48 553.961L1007.17 541.005L935.362 521.112Z" fill="none" opacity="1" stroke="#00f6ff" stroke-linecap="butt" stroke-linejoin="round" stroke-width="2"/>
<path d="M1092.66 519.801L1080.73 549.474L1146.34 563.428L1092.66 519.801Z" fill="none" opacity="1" stroke="#00f6ff" stroke-linecap="butt" stroke-linejoin="round" stroke-width="2"/>
<path d="M1059.98 554.976L1048.75 552.234L1034.29 604.95L1059.98 554.976Z" fill="none" opacity="1" stroke="#00f6ff" stroke-linecap="butt" stroke-linejoin="round" stroke-width="2"/>
<path d="M1031.22 547.728L1019.87 544.04L1014.32 557.064L962.572 621.212L1012.8 617.266L1032.28 562.476L1031.22 547.728Z" fill="none" opacity="1" stroke="#00f6ff" stroke-linecap="butt" stroke-linejoin="round" stroke-width="2"/>
<path d="M1076.65 562.791L1045.3 618.602L983.648 639.833L1016.54 672.164L1157.27 609.415L1154.46 592.168L1076.65 562.791Z" fill="none" opacity="1" stroke="#00f6ff" stroke-linecap="butt" stroke-linejoin="round" stroke-width="2"/>
<path d="M845.056 597.973C845.056 597.973 922.347 611.892 926.483 611.689C930.618 611.487 947.124 629.405 947.124 629.405L1002.37 679.075L902.607 724.165L845.056 597.973Z" fill="none" opacity="1" stroke="#00f6ff" stroke-linecap="butt" stroke-linejoin="round" stroke-width="2"/>
<path d="M967.928 725.673L1024.08 700.176L1057.39 739.655L967.928 725.673Z" fill="none" opacity="1" stroke="#00f6ff" stroke-linecap="butt" stroke-linejoin="round" stroke-width="2"/>
<path d="M1046 688.485L1166.43 636.284C1166.43 636.284 1168.95 682.452 1172.09 691.369C1175.24 700.286 1208.46 746.213 1208.46 746.213L1228.14 768.083L1174.65 765.356C1174.65 765.356 1162.34 736.072 1142.32 723.199C1122.3 710.326 1046 688.485 1046 688.485Z" fill="none" opacity="1" stroke="#00f6ff" stroke-linecap="butt" stroke-linejoin="round" stroke-width="2"/>
<path d="M1053.63 709.057L1105.28 724.097C1105.28 724.097 1114.24 728.534 1127.52 739.006C1140.8 749.479 1145.38 756.062 1145.38 756.062L1088.97 750.419L1053.63 709.057Z" fill="none" opacity="1" stroke="#00f6ff" stroke-linecap="butt" stroke-linejoin="round" stroke-width="2"/>
<path d="M1023.55 752.994L1005.08 796.536L1065.45 805.538L1076.13 759.151L1023.55 752.994Z" fill="none" opacity="1" stroke="#00f6ff" stroke-linecap="butt" stroke-linejoin="round" stroke-width="2"/>
<path d="M1089.53 769.025L1083.62 810.487C1083.62 810.487 1181.7 823.561 1184.81 823.532C1187.92 823.502 1161.58 776.649 1161.58 776.649L1089.53 769.025Z" fill="none" opacity="1" stroke="#00f6ff" stroke-linecap="butt" stroke-linejoin="round" stroke-width="2"/>
<path d="M1161.14 551.399L1181.64 603.043L1341.66 531.624L1327.92 496.54L1287.25 495.913L1161.14 551.399Z" fill="none" opacity="1" stroke="#00f6ff" stroke-linecap="butt" stroke-linejoin="round" stroke-width="2"/>
<path d="M1212.22 612.282L1354.58 559.289L1362.89 562.284L1371.94 608.977L1251.72 669.586L1212.22 612.282Z" fill="none" opacity="1" stroke="#00f6ff" stroke-linecap="butt" stroke-linejoin="round" stroke-width="2"/>
<path d="M1263.09 691.566L1374.19 626.362L1386.66 658.833L1291.27 714.568L1263.09 691.566Z" fill="none" opacity="1" stroke="#00f6ff" stroke-linecap="butt" stroke-linejoin="round" stroke-width="2"/>
<path d="M1301.8 723.313L1390.37 673.863L1395.88 711.083L1334.44 738.562L1301.8 723.313Z" fill="none" opacity="1" stroke="#00f6ff" stroke-linecap="butt" stroke-linejoin="round" stroke-width="2"/>
<path d="M1329.04 754.891C1329.27 756.385 1332.8 759.172 1327.06 763.138C1321.33 767.104 1313.31 770.514 1311.34 763.793C1309.37 757.073 1308.42 755.509 1312.66 751.461C1316.91 747.413 1317.47 746.113 1321.43 747.427C1325.38 748.742 1328.81 753.397 1329.04 754.891Z" fill="none" opacity="1" stroke="#00f6ff" stroke-linecap="butt" stroke-linejoin="round" stroke-width="2"/>
<path d="M1342.29 750.961L1339.63 766.843C1339.63 766.843 1401.11 832.161 1402.92 831.611C1404.73 831.061 1428.67 831.178 1428.67 831.178L1406.05 729.997L1401.33 726.525L1342.29 750.961Z" fill="none" opacity="1" stroke="#00f6ff" stroke-linecap="butt" stroke-linejoin="round" stroke-width="2"/>
<path d="M1333.55 781.719L1334.69 848.711L1337.23 854.098L1381.76 835.954L1337.3 781.88L1333.55 781.719Z" fill="none" opacity="1" stroke="#00f6ff" stroke-linecap="butt" stroke-linejoin="round" stroke-width="2"/>
<path d="M1336.66 872.646C1336.68 874.156 1343.69 895.728 1343.69 895.728L1352.68 895.275L1422.35 883.391C1422.35 883.391 1424.37 868.582 1425.16 866.639C1425.95 864.696 1430.25 849.751 1430.25 849.751C1430.25 849.751 1402.29 848.723 1387.34 851.959C1372.39 855.195 1336.64 871.137 1336.66 872.646Z" fill="none" opacity="1" stroke="#00f6ff" stroke-linecap="butt" stroke-linejoin="round" stroke-width="2"/>
<path d="M1267.15 836.651L1315.48 859.146L1320.8 856.282L1313.9 778.858L1301.39 770.677C1301.39 770.677 1274.37 785.701 1268.88 787.36C1263.39 789.019 1265.12 793.979 1265.12 793.979L1267.15 836.651Z" fill="none" opacity="1" stroke="#00f6ff" stroke-linecap="butt" stroke-linejoin="round" stroke-width="2"/>
<path d="M1270.97 862.01L1271.83 888.708C1271.83 888.708 1273.17 892.54 1279.3 892.579C1285.43 892.617 1303.05 882.837 1303.05 882.837L1314.8 870.253L1275.81 860.375L1270.97 862.01Z" fill="none" opacity="1" stroke="#00f6ff" stroke-linecap="butt" stroke-linejoin="round" stroke-width="2"/>
<path d="M1191.32 785.489L1211.9 828.032C1211.9 828.032 1209.71 830.969 1222.97 832.513C1236.23 834.056 1249.13 837.238 1249.13 837.238L1248.3 795.314L1197.08 783.64L1191.32 785.489Z" fill="none" opacity="1" stroke="#00f6ff" stroke-linecap="butt" stroke-linejoin="round" stroke-width="2"/>
<path d="M1212.25 849.574C1212.25 849.574 1250.34 872.991 1251.25 875.281C1252.16 877.57 1259.57 877.425 1259.16 873.682C1258.76 869.939 1256.38 858.576 1254.89 855.547C1253.39 852.517 1213.98 846.248 1213.98 846.248L1212.25 849.574Z" fill="none" opacity="1" stroke="#00f6ff" stroke-linecap="butt" stroke-linejoin="round" stroke-width="2"/>
<path d="M818.609 515.458L834.073 577.646L898.414 585.021L818.609 515.458Z" fill="none" opacity="1" stroke="#00f6ff" stroke-linecap="butt" stroke-linejoin="round" stroke-width="2"/>
<path d="M734.443 491.848L722.47 560.033L813.05 571.909L796.477 496.465L734.443 491.848Z" fill="none" opacity="1" stroke="#00f6ff" stroke-linecap="butt" stroke-linejoin="round" stroke-width="2"/>
<path d="M719.792 590.166L715.767 654.623L774.903 672.113L843.46 644.924L819.5 594.777L719.792 590.166Z" fill="none" opacity="1" stroke="#00f6ff" stroke-linecap="butt" stroke-linejoin="round" stroke-width="2"/>
<path d="M732.11 702.761L755.474 786.403L882.83 730.193L855.056 667.916L732.11 702.761Z" fill="none" opacity="1" stroke="#00f6ff" stroke-linecap="butt" stroke-linejoin="round" stroke-width="2"/>
<path d="M698.664 703.319C698.664 703.319 658.555 787.438 658.875 794.385C659.195 801.333 657.438 835.248 657.438 835.248C657.438 835.248 735.717 801.908 738.279 800.233C740.84 798.558 702.397 703.162 702.397 703.162L698.664 703.319Z" fill="none" opacity="1" stroke="#00f6ff" stroke-linecap="butt" stroke-linejoin="round" stroke-width="2"/>
<path d="M586.381 618.186L540.791 644.258L632.304 709.992L657.355 713.229C657.355 713.229 663.131 665.088 663.108 661.607C663.084 658.126 586.381 618.186 586.381 618.186Z" fill="none" opacity="1" stroke="#00f6ff" stroke-linecap="butt" stroke-linejoin="round" stroke-width="2"/>
<path d="M711.004 383.693L707.323 386.372L749.263 427.766L792.685 391.506L790.441 387.958L711.004 383.693Z" fill="none" opacity="1" stroke="#00f6ff" stroke-linecap="butt" stroke-linejoin="round" stroke-width="2"/>
<path d="M623.798 400.685L622.22 406.476L663.612 451.872L709.88 472.339L740.88 444.493C740.88 444.493 713.451 416.915 706.999 408.88C700.546 400.845 700.193 402.436 700.193 402.436L623.798 400.685Z" fill="none" opacity="1" stroke="#00f6ff" stroke-linecap="butt" stroke-linejoin="round" stroke-width="2"/>
<path d="M937.957 736.861L908.166 752.256C908.166 752.256 920.896 765.645 925.171 769.102C929.446 772.559 973.431 801.272 973.431 801.272L999.624 794.681L1009.23 757.658L937.957 736.861Z" fill="none" opacity="1" stroke="#00f6ff" stroke-linecap="butt" stroke-linejoin="round" stroke-width="2"/>
<path d="M994.483 819.151L1028.09 846.484L1053.91 817.821L1005.54 808.615L994.483 819.151Z" fill="none" opacity="1" stroke="#00f6ff" stroke-linecap="butt" stroke-linejoin="round" stroke-width="2"/>
<path d="M1046.49 857.179L1084.96 883.304L1138.67 852.031L1166.79 861.063L1194.84 848.183C1186.69 838.411 1077.94 817.358 1077.94 817.358L1046.49 857.179Z" fill="none" opacity="1" stroke="#00f6ff" stroke-linecap="butt" stroke-linejoin="round" stroke-width="2"/>
<path d="M1097.04 890.928L1102.95 897.817L1163.59 869.719L1143.82 860.055L1097.04 890.928Z" fill="none" opacity="1" stroke="#00f6ff" stroke-linecap="butt" stroke-linejoin="round" stroke-width="2"/>
<path d="M1118.39 908.307L1177.69 948.87L1194.18 940.668L1200.92 868.226L1118.39 908.307Z" fill="none" opacity="1" stroke="#00f6ff" stroke-linecap="butt" stroke-linejoin="round" stroke-width="2"/>
<path d="M1217.13 877.366L1211.06 927.047C1211.06 927.047 1227.76 926.376 1234.4 923.005C1241.05 919.635 1262.38 904.963 1262.38 904.963L1217.13 877.366Z" fill="none" opacity="1" stroke="#00f6ff" stroke-linecap="butt" stroke-linejoin="round" stroke-width="2"/>
<path d="M1109.04 1025.65L1209.88 1001.04L1178.4 972.061C1178.4 972.061 1148.74 983.052 1140.06 991.492C1131.38 999.932 1109.04 1025.65 1109.04 1025.65Z" fill="none" opacity="1" stroke="#00f6ff" stroke-linecap="butt" stroke-linejoin="round" stroke-width="2"/>
<path d="M1088.7 1022.55L1078.69 1014.08L1103.2 917.746L1158.91 958.033C1158.91 958.033 1132.42 973.362 1124.96 981.732C1117.5 990.102 1088.7 1022.55 1088.7 1022.55Z" fill="none" opacity="1" stroke="#00f6ff" stroke-linecap="butt" stroke-linejoin="round" stroke-width="2"/>
<path d="M1053.27 1039.37L1074.33 1031.8L1062.17 1020.04L1044.29 1027.79L1053.27 1039.37Z" fill="none" opacity="1" stroke="#00f6ff" stroke-linecap="butt" stroke-linejoin="round" stroke-width="2"/>
<path d="M1032.81 1015.13L1060.61 1005.71L1028.61 944.149L1002.94 963.096L1032.81 1015.13Z" fill="none" opacity="1" stroke="#00f6ff" stroke-linecap="butt" stroke-linejoin="round" stroke-width="2"/>
<path d="M1060 982.292L1043.18 942.7L1083.82 918.616L1086.44 922.483L1066.09 989.19L1060 982.292Z" fill="none" opacity="1" stroke="#00f6ff" stroke-linecap="butt" stroke-linejoin="round" stroke-width="2"/>
<path d="M1038.1 868.607L1077.96 898.464L1077.49 903.902L1012 939.967L1004.77 941.314L1032.82 870.837L1038.1 868.607Z" fill="none" opacity="1" stroke="#00f6ff" stroke-linecap="butt" stroke-linejoin="round" stroke-width="2"/>
<path d="M935.119 858.979L987.147 937.207L991.522 937.036L1023.79 862.495L978.01 828.282L972.856 827.23L935.119 858.979Z" fill="none" opacity="1" stroke="#00f6ff" stroke-linecap="butt" stroke-linejoin="round" stroke-width="2"/>
<path d="M846.355 918.048C847.496 920.249 863.169 949.275 863.169 949.275L868.353 949.016L944.204 896.738L922.318 864.041C922.318 864.041 845.214 915.847 846.355 918.048Z" fill="none" opacity="1" stroke="#00f6ff" stroke-linecap="butt" stroke-linejoin="round" stroke-width="2"/>
<path d="M874.919 966.691L887.827 988.562L975.271 949.737L953.993 911.757L874.919 966.691Z" fill="none" opacity="1" stroke="#00f6ff" stroke-linecap="butt" stroke-linejoin="round" stroke-width="2"/>
<path d="M807.09 944.471L818.786 978.927L851.73 959.528L832.078 927.895L807.09 944.471Z" fill="none" opacity="1" stroke="#00f6ff" stroke-linecap="butt" stroke-linejoin="round" stroke-width="2"/>
<path d="M821.956 995.89L834.642 1033.52L840.537 1033.46L873.609 993.808L861.34 972.556L821.956 995.89Z" fill="none" opacity="1" stroke="#00f6ff" stroke-linecap="butt" stroke-linejoin="round" stroke-width="2"/>
<path d="M855.802 1042.16L884.996 1053.73L946.392 1035.48L975.889 969.988L882.494 1008.51L855.802 1042.16Z" fill="none" opacity="1" stroke="#00f6ff" stroke-linecap="butt" stroke-linejoin="round" stroke-width="2"/>
<path d="M840.033 1056.56C841.241 1058.19 862.367 1106.9 862.367 1106.9L868.128 1106.86L906.309 1081.73L929.047 1074.8L940.84 1055.35L892.093 1063.91L858.013 1061.78C858.013 1061.78 838.824 1054.94 840.033 1056.56Z" fill="none" opacity="1" stroke="#00f6ff" stroke-linecap="butt" stroke-linejoin="round" stroke-width="2"/>
<path d="M968.867 1032.46L1015.35 1019.46L1017.15 1014.4L993.435 975.915L969.393 1026.11L968.867 1032.46Z" fill="none" opacity="1" stroke="#00f6ff" stroke-linecap="butt" stroke-linejoin="round" stroke-width="2"/>
<path d="M952.636 1065.37L961.788 1049.53L1031.65 1033.18L1037.4 1047.49L961.194 1066.79L952.636 1065.37Z" fill="none" opacity="1" stroke="#00f6ff" stroke-linecap="butt" stroke-linejoin="round" stroke-width="2"/>
<path d="M1066.38 1067.88L1081.27 1087.26L1084.75 1086.87L1087.57 1057.24L1073.16 1058.33L1066.48 1062.57L1066.38 1067.88Z" fill="none" opacity="1" stroke="#00f6ff" stroke-linecap="butt" stroke-linejoin="round" stroke-width="2"/>
<path d="M1097.92 1100.8L1101.08 1054.32L1132.53 1047.3L1156.17 1079.63L1154.88 1083.29L1097.92 1100.8Z" fill="none" opacity="1" stroke="#00f6ff" stroke-linecap="butt" stroke-linejoin="round" stroke-width="2"/>
<path d="M1152.58 1045.48L1195.71 1110.3L1217.06 1026.05L1152.58 1038.97L1152.58 1045.48Z" fill="none" opacity="1" stroke="#00f6ff" stroke-linecap="butt" stroke-linejoin="round" stroke-width="2"/>
<path d="M1291.34 971.902L1338.24 962.256L1339.93 956.97L1326.61 887.609L1322.14 886.42C1322.14 886.42 1306.23 902.801 1299.75 905.581C1293.28 908.36 1273.11 915.05 1273.11 915.05L1274.55 924.635L1282.96 959.546L1291.34 971.902Z" fill="none" opacity="1" stroke="#00f6ff" stroke-linecap="butt" stroke-linejoin="round" stroke-width="2"/>
<path d="M1356.16 958.818L1406.85 943.749L1417.21 902.018L1344.98 910.25L1351.37 957.84L1356.16 958.818Z" fill="none" opacity="1" stroke="#00f6ff" stroke-linecap="butt" stroke-linejoin="round" stroke-width="2"/>
<path d="M1362.99 986.747L1374.61 987.709L1377.95 991.188C1377.95 991.188 1385.45 992.517 1390.95 988.488C1396.45 984.458 1399.67 979.136 1399.34 976.452C1399.02 973.768 1400.38 966.885 1393.56 964.355C1386.74 961.824 1373.5 963.371 1373.5 963.371L1369.65 970.813L1358.49 971.546L1362.99 986.747Z" fill="none" opacity="1" stroke="#00f6ff" stroke-linecap="butt" stroke-linejoin="round" stroke-width="2"/>
<path d="M803.618 1089.5L832.373 1065.91L849.346 1115.94L817.27 1121.94L803.618 1089.5Z" fill="none" opacity="1" stroke="#00f6ff" stroke-linecap="butt" stroke-linejoin="round" stroke-width="2"/>
<path d="M754.113 1044.68L772.038 1096L774.796 1097.5L823.024 1045.6L780.758 1030.03L773.344 1028.19L754.113 1044.68Z" fill="none" opacity="1" stroke="#00f6ff" stroke-linecap="butt" stroke-linejoin="round" stroke-width="2"/>
<path d="M706.943 1075.03L721.873 1097.51L750.941 1116.56L756.006 1115.18L764.689 1106.56L740.346 1055.64L737.361 1053.98L706.97 1072.23L706.943 1075.03Z" fill="none" opacity="1" stroke="#00f6ff" stroke-linecap="butt" stroke-linejoin="round" stroke-width="2"/>
<path d="M641.086 1119.66L630.327 1189.71L746.156 1129.47L710.199 1110.11L691.172 1083.62L641.086 1119.66Z" fill="none" opacity="1" stroke="#00f6ff" stroke-linecap="butt" stroke-linejoin="round" stroke-width="2"/>
<path d="M790.688 1018.26L817.069 1028.63L812.351 1005.45L807.843 1005.1L791.568 1013.92L790.688 1018.26Z" fill="none" opacity="1" stroke="#00f6ff" stroke-linecap="butt" stroke-linejoin="round" stroke-width="2"/>
<path d="M734.098 993.983C734.098 993.983 741.373 1023.13 741.967 1025.08C742.562 1027.04 746.523 1028.04 746.523 1028.04L804.759 992.267L796.027 955.995L734.098 993.983Z" fill="none" opacity="1" stroke="#00f6ff" stroke-linecap="butt" stroke-linejoin="round" stroke-width="2"/>
<path d="M701.442 917.938L728.525 983.461L788.084 938.365L767.379 873.144L701.442 917.938Z" fill="none" opacity="1" stroke="#00f6ff" stroke-linecap="butt" stroke-linejoin="round" stroke-width="2"/>
<path d="M657.194 866.645L656.267 932.641L757.579 862.194L745.757 825.247L657.194 866.645Z" fill="none" opacity="1" stroke="#00f6ff" stroke-linecap="butt" stroke-linejoin="round" stroke-width="2"/>
<path d="M764.163 820.901L769.373 853.823L868.139 785.137L867.428 767.61L764.163 820.901Z" fill="none" opacity="1" stroke="#00f6ff" stroke-linecap="butt" stroke-linejoin="round" stroke-width="2"/>
<path d="M778.435 868.713L779.408 875.665L802.625 923.489L852.117 895.545C852.117 895.545 839.049 867.323 838.076 864.821C837.103 862.318 846.278 854.533 851.422 854.811C856.566 855.089 868.105 880.669 868.105 880.669L957.775 817.275L956.941 813.243L900.081 776.541L783.161 863.57L778.435 868.713Z" fill="none" opacity="1" stroke="#00f6ff" stroke-linecap="butt" stroke-linejoin="round" stroke-width="2"/>
<path d="M1101.43 1117.12L1101.26 1121.9L1135.04 1182.71L1190.08 1166.56L1192.72 1135.08L1166.02 1097.02L1101.43 1117.12Z" fill="none" opacity="1" stroke="#00f6ff" stroke-linecap="butt" stroke-linejoin="round" stroke-width="2"/>
<path d="M1144.44 1195.23L1169.98 1240.05L1183.16 1185.18L1144.44 1195.23Z" fill="none" opacity="1" stroke="#00f6ff" stroke-linecap="butt" stroke-linejoin="round" stroke-width="2"/>
<path d="M1205.08 1164.08L1177.06 1302.01L1181.02 1305.31L1272.48 1257.85L1212.55 1163.76L1205.08 1164.08Z" fill="none" opacity="1" stroke="#00f6ff" stroke-linecap="butt" stroke-linejoin="round" stroke-width="2"/>
<path d="M1216.72 1116.57L1210.17 1135.27L1328.95 1306.58L1375 1292.59L1279.32 1168.99L1216.72 1116.57Z" fill="none" opacity="1" stroke="#00f6ff" stroke-linecap="butt" stroke-linejoin="round" stroke-width="2"/>
<path d="M1235.12 1037.47L1220.06 1098.83L1292.95 1164.24L1391.74 1285.45L1470.16 1257.3L1235.12 1037.47Z" fill="none" opacity="1" stroke="#00f6ff" stroke-linecap="butt" stroke-linejoin="round" stroke-width="2"/>
<path d="M1415.09 1089.71L1366.23 1119.16L1496.95 1246.31L1506.33 1246.31C1506.33 1246.31 1526.88 1178.85 1527.85 1176.75C1528.82 1174.65 1446.64 1090.36 1446.64 1090.36L1415.09 1089.71Z" fill="none" opacity="1" stroke="#00f6ff" stroke-linecap="butt" stroke-linejoin="round" stroke-width="2"/>
<path d="M1478.23 1103.77L1533.02 1154.8L1545.21 1123.95L1490.48 1103.41L1478.23 1103.77Z" fill="none" opacity="1" stroke="#00f6ff" stroke-linecap="butt" stroke-linejoin="round" stroke-width="2"/>
<path d="M1545.57 1162.34L1547.98 1169.75L1596.66 1217.7L1660.17 1201.04L1668 1182.81L1561.33 1123.72L1556.96 1129.02L1545.57 1162.34Z" fill="none" opacity="1" stroke="#00f6ff" stroke-linecap="butt" stroke-linejoin="round" stroke-width="2"/>
<path d="M1578.77 1223.59L1577.43 1228.27L1527.01 1240.31L1540.68 1187.11L1547.14 1188.85L1578.77 1223.59Z" fill="none" opacity="1" stroke="#00f6ff" stroke-linecap="butt" stroke-linejoin="round" stroke-width="2"/>
<path d="M1641.32 1144.19L1672.93 1165.18C1672.93 1165.18 1686.08 1154.4 1697.2 1153.9C1708.33 1153.41 1726.59 1158.84 1730.25 1158.46C1733.9 1158.08 1752.86 1120.51 1752.86 1120.51L1690 1065.42L1641.32 1144.19Z" fill="none" opacity="1" stroke="#00f6ff" stroke-linecap="butt" stroke-linejoin="round" stroke-width="2"/>
<path d="M1562.48 1109.4L1624.51 1138.84L1676.32 1051.84L1653.04 1029.01L1579.86 1035.32L1562.48 1109.4Z" fill="none" opacity="1" stroke="#00f6ff" stroke-linecap="butt" stroke-linejoin="round" stroke-width="2"/>
<path d="M1700.38 1050.01L1763.7 1107.05L1794.02 1072.52L1766.31 1042.49L1709.46 1035.17L1700.38 1050.01Z" fill="none" opacity="1" stroke="#00f6ff" stroke-linecap="butt" stroke-linejoin="round" stroke-width="2"/>
<path d="M1742.08 1167.78C1742.08 1167.78 1749.81 1175.78 1750.73 1179.94C1751.66 1184.11 1823.16 1182.57 1823.16 1182.57L1767.64 1131.56L1742.08 1167.78Z" fill="none" opacity="1" stroke="#00f6ff" stroke-linecap="butt" stroke-linejoin="round" stroke-width="2"/>
<path d="M1728 1238.27C1728 1238.27 1748.4 1221.71 1749.59 1218.89C1750.78 1216.08 1756.86 1218.58 1756.86 1218.58L1837.68 1222.76L1837.18 1264.66L1747.24 1323.9L1742.73 1323.18L1728 1238.27Z" fill="none" opacity="1" stroke="#00f6ff" stroke-linecap="butt" stroke-linejoin="round" stroke-width="2"/>
<path d="M1681.33 1216C1681.33 1216 1692.86 1238.25 1710.08 1231.54C1727.3 1224.84 1735.85 1210.56 1735.85 1210.56L1681.33 1216Z" fill="none" opacity="1" stroke="#00f6ff" stroke-linecap="butt" stroke-linejoin="round" stroke-width="2"/>
<path d="M1675.68 1199.78L1739.22 1191.23C1739.22 1191.23 1733.65 1170.54 1720.15 1169.19C1706.66 1167.84 1697.84 1170.77 1697.84 1170.77L1677.51 1187.61L1675.68 1199.78Z" fill="none" opacity="1" stroke="#00f6ff" stroke-linecap="butt" stroke-linejoin="round" stroke-width="2"/>
<path d="M1778.84 1118.11L1852.45 1187.07L1921.49 1188.86L1808.17 1086.32L1778.84 1118.11Z" fill="none" opacity="1" stroke="#00f6ff" stroke-linecap="butt" stroke-linejoin="round" stroke-width="2"/>
<path d="M1823.75 1074.56L1951.58 1186.03L1981.89 1180.45L2129.37 1019.39C2129.37 1019.39 2082.86 988.753 2052.52 972.427C2022.19 956.101 1990.23 951.496 1963.69 958.239C1937.16 964.982 1846.87 1016.2 1846.87 1016.2L1833.29 1051.21L1956.45 1031.7L1957.76 1051.63L1823.75 1074.56Z" fill="none" opacity="1" stroke="#00f6ff" stroke-linecap="butt" stroke-linejoin="round" stroke-width="2"/>
<path d="M1789.67 1047.74L1802.59 1059.04L1822.7 1025.31L1789.67 1047.74Z" fill="none" opacity="1" stroke="#00f6ff" stroke-linecap="butt" stroke-linejoin="round" stroke-width="2"/>
<path d="M2014.33 1191.7L2150.34 1196.53L2146.4 1059.38L2014.33 1191.7Z" fill="none" opacity="1" stroke="#00f6ff" stroke-linecap="butt" stroke-linejoin="round" stroke-width="2"/>
<path d="M2167.14 1038.61L2171.1 1192.53L2190.38 1196.43C2190.38 1196.43 2216.23 1180.83 2221.56 1180.72C2226.89 1180.62 2226.54 1030.95 2226.54 1030.95L2167.14 1038.61Z" fill="none" opacity="1" stroke="#00f6ff" stroke-linecap="butt" stroke-linejoin="round" stroke-width="2"/>
<path d="M2244.43 1026.92L2241.67 1178.77L2259.19 1205.14L2275.19 1204.98C2275.19 1204.98 2282.18 1184.06 2282.11 1179.46C2282.04 1174.86 2299.28 1123.34 2299.28 1123.34C2299.28 1123.34 2304.93 1092.81 2296.6 1070.35C2288.28 1047.88 2273.07 1024.87 2273.07 1024.87L2244.43 1026.92Z" fill="none" opacity="1" stroke="#00f6ff" stroke-linecap="butt" stroke-linejoin="round" stroke-width="2"/>
<path d="M2839.09 904.516C2839.09 904.516 2828 903.038 2821.6 904.27C2815.19 905.502 2785.37 923.983 2785.37 923.983L2704.05 967.6L2633.82 999.389L2565.94 1019.91L2492.69 1019.09C2492.69 1019.09 2476.74 1014.31 2474.48 1013.54C2472.23 1012.77 2436.01 1011.32 2426.02 1009.88C2416.03 1008.43 2392.77 999.866 2391.51 999.77C2390.26 999.674 2345.17 1007.95 2345.17 1007.95L2290.05 1019.71C2290.05 1019.71 2322.58 1084.94 2320.94 1091.74C2319.31 1098.53 2332.04 1097.85 2332.04 1097.85C2332.04 1097.85 2338.56 1080.35 2366.5 1078.2C2394.44 1076.05 2414.55 1077.09 2431.7 1085.9C2448.84 1094.71 2455.9 1109.9 2476.4 1119.82C2496.9 1129.73 2559.89 1128.87 2559.89 1128.87L2589.11 1122.22L2838.01 912.783L2839.09 904.516Z" fill="none" opacity="1" stroke="#00f6ff" stroke-linecap="butt" stroke-linejoin="round" stroke-width="2"/>
<path d="M1625.2 854.636L1808.38 842.434L1761.94 741.975L1647.24 829.694L1617.64 852.381L1625.2 854.636Z" fill="none" opacity="1" stroke="#00f6ff" stroke-linecap="butt" stroke-linejoin="round" stroke-width="2"/>
<path d="M1608.74 838.828L1707.95 766.008L1628.1 788.517L1608.74 838.828Z" fill="none" opacity="1" stroke="#00f6ff" stroke-linecap="butt" stroke-linejoin="round" stroke-width="2"/>
<path d="M1543.56 920.965L1605.56 796.72L1512.82 826.674L1543.56 920.965Z" fill="none" opacity="1" stroke="#00f6ff" stroke-linecap="butt" stroke-linejoin="round" stroke-width="2"/>
<path d="M1524.14 930.358L1498.58 834.242L1453.68 846.654C1453.68 846.654 1456.36 871.467 1475.62 890.575C1494.88 909.683 1524.14 930.358 1524.14 930.358Z" fill="none" opacity="1" stroke="#00f6ff" stroke-linecap="butt" stroke-linejoin="round" stroke-width="2"/>
<path d="M1560.5 963.827C1560.5 963.827 1831.3 895.883 1830.71 892.008C1830.12 888.132 1814.21 859.788 1814.21 859.788L1583.27 876.113L1548.47 947.421L1556.07 964.424L1560.5 963.827Z" fill="none" opacity="1" stroke="#00f6ff" stroke-linecap="butt" stroke-linejoin="round" stroke-width="2"/>
<path d="M1457.91 828.497L1671.93 762.858L1630.04 673.101L1487.46 687.776L1420.25 718.431L1457.91 828.497Z" fill="none" opacity="1" stroke="#00f6ff" stroke-linecap="butt" stroke-linejoin="round" stroke-width="2"/>
<path d="M1540.39 638.376L1587.54 605.421L1565.65 572.186L1516.55 600.149L1540.39 638.376Z" fill="none" opacity="1" stroke="#00f6ff" stroke-linecap="butt" stroke-linejoin="round" stroke-width="2"/>
<path d="M1555.03 671.221L1546.86 653.269L1610.84 615.692L1633.56 660.607L1555.03 671.221Z" fill="none" opacity="1" stroke="#00f6ff" stroke-linecap="butt" stroke-linejoin="round" stroke-width="2"/>
<path d="M1407.97 703.226L1524.62 648.233L1498.74 597.039L1567.88 559.855L1548.56 518.962L1383.01 576.62L1407.97 703.226Z" fill="none" opacity="1" stroke="#00f6ff" stroke-linecap="butt" stroke-linejoin="round" stroke-width="2"/>
<path d="M1479.32 921.357L1429.22 938.641L1439.2 868.725L1443.77 866.924L1479.32 921.357Z" fill="none" opacity="1" stroke="#00f6ff" stroke-linecap="butt" stroke-linejoin="round" stroke-width="2"/>
<path d="M1537.43 972.07L1535.53 954.94C1535.53 954.94 1507.61 940.441 1504.41 937.914C1501.2 935.386 1416.34 953.961 1416.34 953.961L1414.59 988.548C1414.59 988.548 1456.06 986.624 1476.72 983.281C1497.38 979.939 1537.43 972.07 1537.43 972.07Z" fill="none" opacity="1" stroke="#00f6ff" stroke-linecap="butt" stroke-linejoin="round" stroke-width="2"/>
<path d="M1351.43 1107.4L1402.66 1081.67C1402.66 1081.67 1366.49 1078.3 1341.52 1068.68C1316.55 1059.05 1275.7 1028.14 1267.94 1017.8C1260.18 1007.46 1257.74 1005.67 1257.74 1005.67L1238.57 1006.11L1351.43 1107.4Z" fill="none" opacity="1" stroke="#00f6ff" stroke-linecap="butt" stroke-linejoin="round" stroke-width="2"/>
<path d="M1277.66 1006.19C1277.66 1006.19 1305.9 1038.16 1328.89 1047.13C1351.88 1056.09 1398.56 1062.41 1422.79 1056.85C1447.01 1051.29 1551.57 1026.04 1551.57 1026.04L1540.91 983.94C1540.91 983.94 1486.45 1002.33 1459.01 1006.14C1431.58 1009.94 1400.94 1009.59 1386.95 1008.24C1372.96 1006.9 1345.9 999.883 1340.4 997.646C1334.91 995.408 1317.17 992.422 1317.17 992.422L1277.66 1006.19Z" fill="none" opacity="1" stroke="#00f6ff" stroke-linecap="butt" stroke-linejoin="round" stroke-width="2"/>
<path d="M1445.52 1076.15L1543.34 1107.2L1562.19 1049.13L1449.05 1067.74L1445.52 1076.15Z" fill="none" opacity="1" stroke="#00f6ff" stroke-linecap="butt" stroke-linejoin="round" stroke-width="2"/>
<path d="M1579.53 1021.6C1579.53 1021.6 1634.19 1010.91 1663.57 1013.56C1692.95 1016.21 1747.65 1029.55 1761.61 1030.25C1775.56 1030.96 1810.45 1011.46 1810.45 1011.46L1818.35 1005.96L1615.26 961.683L1563.86 981.74L1572.91 1023.12L1579.53 1021.6Z" fill="none" opacity="1" stroke="#00f6ff" stroke-linecap="butt" stroke-linejoin="round" stroke-width="2"/>
<path d="M1841.41 990.939L1664.86 946.802L1835.93 902.9L1841.41 990.939Z" fill="none" opacity="1" stroke="#00f6ff" stroke-linecap="butt" stroke-linejoin="round" stroke-width="2"/>
<path d="M1869.43 980.58C1869.43 980.58 1918.27 947.46 1953.52 944.102C1953.52 944.102 1982.31 931.94 2008.09 937.824C2033.86 943.708 2066.98 961.295 2067.17 962.406C2067.36 963.517 2140.35 917.883 2140.35 917.883L2036.71 826.599L1855.58 901.77L1869.43 980.58Z" fill="none" opacity="1" stroke="#00f6ff" stroke-linecap="butt" stroke-linejoin="round" stroke-width="2"/>
<path d="M1850.62 883.942L2017.69 811.176C2017.69 811.176 1993.84 794.291 1978.38 759.585C1962.92 724.878 1957.08 701.866 1956.03 686.801C1954.98 671.736 1952.17 664.213 1952.17 664.213C1952.17 664.213 1895 697.614 1871.14 707.409C1847.28 717.204 1779.97 735.949 1779.97 735.949L1850.62 883.942Z" fill="none" opacity="1" stroke="#00f6ff" stroke-linecap="butt" stroke-linejoin="round" stroke-width="2"/>
<path d="M1688.98 749.988L1751.96 732.811L1701.91 646.081L1650.38 669.619L1688.98 749.988Z" fill="none" opacity="1" stroke="#00f6ff" stroke-linecap="butt" stroke-linejoin="round" stroke-width="2"/>
<path d="M1648.6 657.28L1696.37 637.16L1670.39 579.135L1626.41 606.011L1648.6 657.28Z" fill="none" opacity="1" stroke="#00f6ff" stroke-linecap="butt" stroke-linejoin="round" stroke-width="2"/>
<path d="M1599.85 601.053L1659.88 566.243L1599.28 446.316L1539.64 469.402L1599.85 601.053Z" fill="none" opacity="1" stroke="#00f6ff" stroke-linecap="butt" stroke-linejoin="round" stroke-width="2"/>
<path d="M1679.54 555.123L1716.71 534.321L1645.02 425.406L1616.63 439.675L1679.54 555.123Z" fill="none" opacity="1" stroke="#00f6ff" stroke-linecap="butt" stroke-linejoin="round" stroke-width="2"/>
<path d="M1733.2 523.835L1766.37 506.924L1696.28 404.234L1662.95 417.082L1733.2 523.835Z" fill="none" opacity="1" stroke="#00f6ff" stroke-linecap="butt" stroke-linejoin="round" stroke-width="2"/>
<path d="M1785.74 492.53L1899.53 426.771L1864 329.181L1708.95 393.469L1785.74 492.53Z" fill="none" opacity="1" stroke="#00f6ff" stroke-linecap="butt" stroke-linejoin="round" stroke-width="2"/>
<path d="M1834.56 558.952L1925.65 504.157L1900.67 442.125L1800.24 512.24L1834.56 558.952Z" fill="none" opacity="1" stroke="#00f6ff" stroke-linecap="butt" stroke-linejoin="round" stroke-width="2"/>
<path d="M1710.46 619.381L1815.33 563.198L1784.47 519.128L1686.43 570.894L1710.46 619.381Z" fill="none" opacity="1" stroke="#00f6ff" stroke-linecap="butt" stroke-linejoin="round" stroke-width="2"/>
<path d="M1765.79 726.899L1717.76 642.457L1839.81 571.439L1903.71 668.543L1832.67 711.115L1765.79 726.899Z" fill="none" opacity="1" stroke="#00f6ff" stroke-linecap="butt" stroke-linejoin="round" stroke-width="2"/>
<path d="M1918.96 662.198L1950.48 648.961L1931.42 524.513L1859.64 561.498L1918.96 662.198Z" fill="none" opacity="1" stroke="#00f6ff" stroke-linecap="butt" stroke-linejoin="round" stroke-width="2"/>
<path d="M1974.42 634.739L2021.79 605.588L1994.46 492.448L1955.11 507.752L1974.42 634.739Z" fill="none" opacity="1" stroke="#00f6ff" stroke-linecap="butt" stroke-linejoin="round" stroke-width="2"/>
<path d="M2033.82 599.03L2092.85 573.523L2040.01 469.491L2007.76 485.706L2033.82 599.03Z" fill="none" opacity="1" stroke="#00f6ff" stroke-linecap="butt" stroke-linejoin="round" stroke-width="2"/>
<path d="M2037.05 621.23L2101.89 780.083L2158.19 744.73L2102 588.135L2037.05 621.23Z" fill="none" opacity="1" stroke="#00f6ff" stroke-linecap="butt" stroke-linejoin="round" stroke-width="2"/>
<path d="M1977.19 650.988L2020.51 626.159L2088.91 786.458L2056.29 804.4C2056.29 804.4 2010.44 775.008 1997.79 743.696C1985.13 712.385 1977.19 650.988 1977.19 650.988Z" fill="none" opacity="1" stroke="#00f6ff" stroke-linecap="butt" stroke-linejoin="round" stroke-width="2"/>
<path d="M2118.73 587.855L2178.47 736.743C2178.47 736.743 2278.83 686.006 2280.93 664.418C2283.03 642.83 2277.98 637.872 2274.6 625.699C2271.23 613.525 2248.46 541.546 2248.46 541.546L2118.73 587.855Z" fill="none" opacity="1" stroke="#00f6ff" stroke-linecap="butt" stroke-linejoin="round" stroke-width="2"/>
<path d="M2255.11 492.881L2266 519.031L2405.42 481.114L2396.01 456.142L2255.11 492.881Z" fill="none" opacity="1" stroke="#00f6ff" stroke-linecap="butt" stroke-linejoin="round" stroke-width="2"/>
<path d="M2249.56 477.235L2390.17 443.392L2387.36 402.718L2357.1 386.995L2234.99 414.565L2249.56 477.235Z" fill="none" opacity="1" stroke="#00f6ff" stroke-linecap="butt" stroke-linejoin="round" stroke-width="2"/>
<path d="M2175.96 544.952L2245.4 524.356L2218.22 433.748L2158.34 525.859L2175.96 544.952Z" fill="none" opacity="1" stroke="#00f6ff" stroke-linecap="butt" stroke-linejoin="round" stroke-width="2"/>
<path d="M2122.51 435.378L2151.26 508.006L2210.13 421.496L2122.51 435.378Z" fill="none" opacity="1" stroke="#00f6ff" stroke-linecap="butt" stroke-linejoin="round" stroke-width="2"/>
<path d="M2054.87 459.818L2111.06 571.141L2141.27 526.723L2100.25 445.505L2054.87 459.818Z" fill="none" opacity="1" stroke="#00f6ff" stroke-linecap="butt" stroke-linejoin="round" stroke-width="2"/>
<path d="M2029.38 407.867L2048.48 443.793L2090.02 431.275L2077.38 386.656L2029.38 407.867Z" fill="none" opacity="1" stroke="#00f6ff" stroke-linecap="butt" stroke-linejoin="round" stroke-width="2"/>
<path d="M1950.7 492.398L1933.37 427.039L2013.95 405.091L2029.44 451.438L1955.29 493.344L1950.7 492.398Z" fill="none" opacity="1" stroke="#00f6ff" stroke-linecap="butt" stroke-linejoin="round" stroke-width="2"/>
<path d="M1927.26 414.165L2003.58 396.67L1951.8 294.543L1891.51 309.18L1927.26 414.165Z" fill="none" opacity="1" stroke="#00f6ff" stroke-linecap="butt" stroke-linejoin="round" stroke-width="2"/>
<path d="M2267.01 535.768L2296.75 661.274L2328.51 643.4C2328.51 643.4 2323.11 636.223 2335.38 596.732C2347.65 557.241 2358.98 526.805 2357.1 510.371C2356.55 505.577 2267.01 535.768 2267.01 535.768Z" fill="none" opacity="1" stroke="#00f6ff" stroke-linecap="butt" stroke-linejoin="round" stroke-width="2"/>
<path d="M2025.83 390.82L1970.55 284.113L2035.88 259.97L2073.79 370.003L2025.83 390.82Z" fill="none" opacity="1" stroke="#00f6ff" stroke-linecap="butt" stroke-linejoin="round" stroke-width="2"/>
<path d="M2094.17 366.073L2343.24 269.098L2343.99 263.214L2326.22 244.825L2081.55 319.829L2094.17 366.073Z" fill="none" opacity="1" stroke="#00f6ff" stroke-linecap="butt" stroke-linejoin="round" stroke-width="2"/>
<path d="M2071.11 302.622L2299.52 230.497L2216.44 201.419L2059.16 251.324L2071.11 302.622Z" fill="none" opacity="1" stroke="#00f6ff" stroke-linecap="butt" stroke-linejoin="round" stroke-width="2"/>
<path d="M2245.2 186.611L2322.55 227.241L2309.45 170.588L2245.2 186.611Z" fill="none" opacity="1" stroke="#00f6ff" stroke-linecap="butt" stroke-linejoin="round" stroke-width="2"/>
<path d="M2115.53 418.369L2101.47 379.544L2342.44 284.447L2369.6 345.648L2357.99 373.852L2323.49 373.089L2115.53 418.369Z" fill="none" opacity="1" stroke="#00f6ff" stroke-linecap="butt" stroke-linejoin="round" stroke-width="2"/>
<path d="M2372.68 373.681C2372.68 373.681 2374.81 385.264 2381.86 384.129C2388.9 382.993 2398.06 379.28 2396.76 375.679C2395.46 372.078 2387.6 361.26 2387.6 361.26L2372.68 373.681Z" fill="none" opacity="1" stroke="#00f6ff" stroke-linecap="butt" stroke-linejoin="round" stroke-width="2"/>
<path d="M2384.96 345.47L2306.98 94.2212L2661.71 79.3256L2669.77 203.547L2646.57 216.099L2635.3 200.09L2625.55 201.814L2624.29 212.822L2607.32 214.446L2601.55 178.895L2581.7 178.714L2600.65 340.05C2600.65 340.05 2550.29 380.584 2535.12 382.117C2519.96 383.651 2516.89 390.807 2495.25 383.651C2473.62 376.495 2461.52 371.383 2448.74 366.442C2435.96 361.501 2404.61 356.901 2404.61 356.901C2404.61 356.901 2406.14 351.278 2399.67 349.574C2393.2 347.87 2384.96 345.47 2384.96 345.47Z" fill="none" opacity="1" stroke="#00f6ff" stroke-linecap="butt" stroke-linejoin="round" stroke-width="2"/>
<path d="M2484.69 398.474C2484.69 398.474 2513.31 398.815 2526.6 393.874C2539.89 388.932 2573.97 376.154 2573.97 376.154L2595.1 376.324L2586.41 451.292L2489.97 458.278L2484.69 398.474Z" fill="none" opacity="1" stroke="#00f6ff" stroke-linecap="butt" stroke-linejoin="round" stroke-width="2"/>
<path d="M2419.43 474.464L2472.59 461.856L2467.65 396.94L2408.53 372.746C2408.53 372.746 2410.23 379.902 2405.46 383.821C2400.69 387.74 2397.45 390.125 2397.45 390.125L2419.43 474.464Z" fill="none" opacity="1" stroke="#00f6ff" stroke-linecap="butt" stroke-linejoin="round" stroke-width="2"/>
<path d="M2082.13 971.764L2092.12 986.16L2150.39 1003.1L2146.66 933.318L2082.13 971.764Z" fill="none" opacity="1" stroke="#00f6ff" stroke-linecap="butt" stroke-linejoin="round" stroke-width="2"/>
<path d="M2167.15 995.983L2222.87 992.427L2168.85 944.496L2167.15 995.983Z" fill="none" opacity="1" stroke="#00f6ff" stroke-linecap="butt" stroke-linejoin="round" stroke-width="2"/>
<path d="M2191.76 929.795L2256.78 988.662L2373.19 962.523L2361.55 940.997L2191.76 929.795Z" fill="none" opacity="1" stroke="#00f6ff" stroke-linecap="butt" stroke-linejoin="round" stroke-width="2"/>
<path d="M2194.62 911.783L2341.56 919.91L2293.46 846.986L2194.62 911.783Z" fill="none" opacity="1" stroke="#00f6ff" stroke-linecap="butt" stroke-linejoin="round" stroke-width="2"/>
<path d="M2179.24 899.027L2288.46 837.774L2230.61 747.847L2179.24 899.027Z" fill="none" opacity="1" stroke="#00f6ff" stroke-linecap="butt" stroke-linejoin="round" stroke-width="2"/>
<path d="M2153.27 886.394L2162.43 885.625L2217.84 736.514L2069.37 820.149L2153.27 886.394Z" fill="none" opacity="1" stroke="#00f6ff" stroke-linecap="butt" stroke-linejoin="round" stroke-width="2"/>
<path d="M2386.88 957.476C2386.88 957.476 2474.25 940.2 2510.07 919.872C2545.9 899.544 2641.58 843.854 2641.58 843.854L2610.95 669.239L2477.61 686.113L2476.85 707.972L2463.41 710.73L2455.99 686.147C2455.99 686.147 2392.67 678.433 2354 683.612C2315.33 688.791 2237.95 723.387 2237.95 723.387L2386.88 957.476Z" fill="none" opacity="1" stroke="#00f6ff" stroke-linecap="butt" stroke-linejoin="round" stroke-width="2"/>
<path d="M2331.17 662.281L2450.8 668.501L2443.21 614.733L2331.17 662.281Z" fill="none" opacity="1" stroke="#00f6ff" stroke-linecap="butt" stroke-linejoin="round" stroke-width="2"/>
<path d="M2468.9 665.155L2609.52 646.749L2596.72 581.578L2534.48 582.775L2461.74 606.742L2468.9 665.155Z" fill="none" opacity="1" stroke="#00f6ff" stroke-linecap="butt" stroke-linejoin="round" stroke-width="2"/>
<path d="M2455.58 585.263L2589.27 560.605L2589.28 526.262L2521.54 536.324L2499.65 529.958L2445.59 540.643L2455.58 585.263Z" fill="none" opacity="1" stroke="#00f6ff" stroke-linecap="butt" stroke-linejoin="round" stroke-width="2"/>
<path d="M2438.33 522.476C2438.33 522.476 2492.77 517.073 2499.72 517.622C2506.67 518.172 2514.89 520.033 2514.89 520.033C2514.89 520.033 2542.61 514.738 2551.09 513.953C2559.57 513.168 2579 512.128 2579 512.128L2583.97 473.304L2493.68 479.77L2431.69 491.349L2438.33 522.476Z" fill="none" opacity="1" stroke="#00f6ff" stroke-linecap="butt" stroke-linejoin="round" stroke-width="2"/>
<path d="M2626.9 646.502L2739.17 631.01L2738.79 569.999L2613.7 580.709L2626.9 646.502Z" fill="none" opacity="1" stroke="#00f6ff" stroke-linecap="butt" stroke-linejoin="round" stroke-width="2"/>
<path d="M2727.89 654.918L2741.66 656.639L2746.25 647.267L2737.26 644.972L2726.36 649.562L2727.89 654.918Z" fill="none" opacity="1" stroke="#00f6ff" stroke-linecap="butt" stroke-linejoin="round" stroke-width="2"/>
<path d="M2664.73 833.82C2664.73 833.82 2695.43 813.47 2713.02 806.571C2730.61 799.673 2767.86 787.946 2767.86 787.946L2744.75 671.709C2744.75 671.709 2730.26 675.848 2718.54 668.95C2706.81 662.051 2697.15 655.153 2697.15 655.153L2630.93 667.915L2664.73 833.82Z" fill="none" opacity="1" stroke="#00f6ff" stroke-linecap="butt" stroke-linejoin="round" stroke-width="2"/>
<path d="M2786.5 782.534L2861.74 760.866C2861.74 760.866 2855.23 730.665 2850.49 713.275C2845.75 695.885 2838.33 657.34 2838.33 657.34L2765.43 671.635C2765.43 671.635 2769.3 710.489 2772.29 726.3C2775.28 742.11 2786.5 782.534 2786.5 782.534Z" fill="none" opacity="1" stroke="#00f6ff" stroke-linecap="butt" stroke-linejoin="round" stroke-width="2"/>
<path d="M2761.29 650.832L2828.36 640.211L2833.32 557.96L2754.61 561.652L2761.29 650.832Z" fill="none" opacity="1" stroke="#00f6ff" stroke-linecap="butt" stroke-linejoin="round" stroke-width="2"/>
<path d="M2610.77 562.262L2689.89 553.736L2687.5 510.817L2678.54 508.63L2678.86 496.967L2696.1 496.495L2696.76 488.985L2709.67 489.375L2710.69 508.758L2702.07 510.724L2702.94 553.365L2737.9 550.622L2731.84 467.932L2608.78 470.011L2610.77 562.262Z" fill="none" opacity="1" stroke="#00f6ff" stroke-linecap="butt" stroke-linejoin="round" stroke-width="2"/>
<path d="M2606.72 452.694L2636 449.834L2637.77 385.551L2612.29 383.617L2606.72 452.694Z" fill="none" opacity="1" stroke="#00f6ff" stroke-linecap="butt" stroke-linejoin="round" stroke-width="2"/>
<path d="M2656.55 451.496L2680.81 450.125L2678.24 382.679L2652.95 384.211L2656.55 451.496Z" fill="none" opacity="1" stroke="#00f6ff" stroke-linecap="butt" stroke-linejoin="round" stroke-width="2"/>
<path d="M2695.52 450.257L2729.27 449.142L2724.25 370.541L2692.47 379.74L2695.52 450.257Z" fill="none" opacity="1" stroke="#00f6ff" stroke-linecap="butt" stroke-linejoin="round" stroke-width="2"/>
<path d="M2750.32 451.774L2813.25 440.471L2814.11 401.513L2795.84 405.438L2795.01 384.584L2812.14 386.784L2808.83 356.876L2742.26 369.454L2750.32 451.774Z" fill="none" opacity="1" stroke="#00f6ff" stroke-linecap="butt" stroke-linejoin="round" stroke-width="2"/>
<path d="M2605.9 360.839C2605.9 360.839 2622.77 367.978 2638.9 368.237C2655.02 368.496 2685.06 363.769 2685.06 363.769L2723.5 352.471L2720.23 325.007L2605.9 360.839Z" fill="none" opacity="1" stroke="#00f6ff" stroke-linecap="butt" stroke-linejoin="round" stroke-width="2"/>
<path d="M2626.79 337.845L2688.15 321.571L2686.15 290.002L2619.27 295.591L2626.79 337.845Z" fill="none" opacity="1" stroke="#00f6ff" stroke-linecap="butt" stroke-linejoin="round" stroke-width="2"/>
<path d="M2611.51 279.844L2634.25 281.215L2630.1 227.74L2614.08 227.32L2611.51 279.844Z" fill="none" opacity="1" stroke="#00f6ff" stroke-linecap="butt" stroke-linejoin="round" stroke-width="2"/>
<path d="M2651.42 279.923L2684.24 272.408L2679.29 218.509L2646.63 223.271L2651.42 279.923Z" fill="none" opacity="1" stroke="#00f6ff" stroke-linecap="butt" stroke-linejoin="round" stroke-width="2"/>
<path d="M2737.12 349.121L2733.18 324.675L2798.38 287.977L2869.05 279.745L2885.01 331.383L2737.12 349.121Z" fill="none" opacity="1" stroke="#00f6ff" stroke-linecap="butt" stroke-linejoin="round" stroke-width="2"/>
<path d="M2908.67 329.911L2957.94 326.845L2959.37 335.227C2959.37 335.227 2986.33 351.016 2999.57 366.299C3012.82 381.582 3028.91 403.793 3028.91 403.793L3042.16 398.902L2943.84 223.676C2943.84 223.676 2891.34 274.376 2888.63 275.278C2885.93 276.179 2908.67 329.911 2908.67 329.911Z" fill="none" opacity="1" stroke="#00f6ff" stroke-linecap="butt" stroke-linejoin="round" stroke-width="2"/>
<path d="M2939.53 427.371L3010.2 412.8L2996.67 380.619C2996.67 380.619 2981.49 378.734 2969.93 367.146C2958.37 355.559 2945.88 340.47 2945.88 340.47L2909 340.787L2939.53 427.371Z" fill="none" opacity="1" stroke="#00f6ff" stroke-linecap="butt" stroke-linejoin="round" stroke-width="2"/>
<path d="M2839.15 442.122L2918.09 429.907L2887.99 346.344C2887.99 346.344 2865.48 347.545 2857.46 348.248C2849.44 348.952 2831.51 352.504 2831.51 352.504L2831.95 382.556L2858.29 380.165L2858.47 392.186L2832.43 398.794L2839.15 442.122Z" fill="none" opacity="1" stroke="#00f6ff" stroke-linecap="butt" stroke-linejoin="round" stroke-width="2"/>
<path d="M2962.14 507.206L3042 479.554L3020.7 420.77L2944.76 440.593L2962.14 507.206Z" fill="none" opacity="1" stroke="#00f6ff" stroke-linecap="butt" stroke-linejoin="round" stroke-width="2"/>
<path d="M2847.75 537.715L2943.71 515.81L2917.46 445.945L2854.79 456.742L2856.3 511.249L2841.49 522.896L2847.75 537.715Z" fill="none" opacity="1" stroke="#00f6ff" stroke-linecap="butt" stroke-linejoin="round" stroke-width="2"/>
<path d="M2825.97 516.873L2842.46 516.755L2841.8 503.841L2848.47 502.729L2847.64 486.274C2847.64 486.274 2842.08 475.556 2835.61 475.531C2829.13 475.505 2828.52 475.869 2824.54 479.942C2820.56 484.015 2814.8 489.343 2815.84 492.801C2816.88 496.259 2819.53 506.239 2819.53 506.239L2822.97 506.792L2825.97 516.873Z" fill="none" opacity="1" stroke="#00f6ff" stroke-linecap="butt" stroke-linejoin="round" stroke-width="2"/>
<path d="M2352.27 636.129L2434.57 599.32L2407.63 498.013L2379.47 504.321C2379.47 504.321 2380.38 512.638 2371.44 538.466C2362.51 564.295 2353.46 579.116 2352.27 587.946C2351.09 596.776 2347.14 633.103 2347.14 633.103L2352.27 636.129Z" fill="none" opacity="1" stroke="#00f6ff" stroke-linecap="butt" stroke-linejoin="round" stroke-width="2"/>
<path d="M2751.54 548.94L2825.51 541.91L2826.31 525.612L2810.5 509.475L2808.58 462.34L2753.93 462.819L2751.54 548.94Z" fill="none" opacity="1" stroke="#00f6ff" stroke-linecap="butt" stroke-linejoin="round" stroke-width="2"/>
<path d="M2853 631.641L2984.64 629.753L2951.58 529.591L2848.12 550.509L2853 631.641Z" fill="none" opacity="1" stroke="#00f6ff" stroke-linecap="butt" stroke-linejoin="round" stroke-width="2"/>
<path d="M3000.89 632.129L3075.08 646.113L3122.04 622.261L3074.27 489.328L2970.31 526.95L3000.89 632.129Z" fill="none" opacity="1" stroke="#00f6ff" stroke-linecap="butt" stroke-linejoin="round" stroke-width="2"/>
<path d="M2878.97 757.59L2987.26 740.892L2984.89 649.658C2984.89 649.658 2937.97 649.627 2917.18 649.753C2896.38 649.879 2857.76 652.639 2857.76 652.639L2878.97 757.59Z" fill="none" opacity="1" stroke="#00f6ff" stroke-linecap="butt" stroke-linejoin="round" stroke-width="2"/>
<path d="M3012.34 740.46L3111.33 731.925L3114.96 672.643L3008.43 655.075L3012.34 740.46Z" fill="none" opacity="1" stroke="#00f6ff" stroke-linecap="butt" stroke-linejoin="round" stroke-width="2"/>
<path d="M3135.61 733.64L3292.49 704.611L3274.81 649.97C3274.81 649.97 3213.87 664.478 3198.41 666.81C3182.95 669.143 3133.16 670.081 3133.16 670.081L3135.61 733.64Z" fill="none" opacity="1" stroke="#00f6ff" stroke-linecap="butt" stroke-linejoin="round" stroke-width="2"/>
<path d="M3150.47 649.129C3150.47 649.129 3206.91 642.19 3242.07 635.25C3277.23 628.31 3365.14 600.55 3365.14 600.55L3366.53 517.735L3310.08 489.512C3310.08 489.512 3303.61 523.749 3287.41 546.419C3271.22 569.09 3247.16 587.133 3247.16 587.133L3244.37 579.626C3244.37 579.626 3263.41 564.519 3269.45 546.394C3275.49 528.268 3280.02 507.208 3283.84 499.375C3287.66 491.543 3290.27 481.813 3290.27 481.813C3290.27 481.813 3249.57 468.309 3208.04 469.19C3166.52 470.071 3091.96 481.083 3091.96 481.083L3150.47 649.129Z" fill="none" opacity="1" stroke="#00f6ff" stroke-linecap="butt" stroke-linejoin="round" stroke-width="2"/>
<path d="M3089.73 472.512C3089.73 472.512 3123.92 456.212 3152.69 453.142C3181.46 450.073 3230.25 451.828 3261.43 459.523C3292.6 467.219 3370.89 496.692 3370.89 496.692L3370.37 357.627L3310.34 361.125C3310.34 361.125 3313.43 380.137 3314.97 383.122C3316.51 386.107 3321.32 391.318 3321.32 391.318L3306.87 399.046C3306.87 399.046 3293.62 370.993 3280.1 363.661C3266.57 356.33 3249.38 347.408 3234.17 351.346C3218.96 355.284 3138.36 383.846 3138.36 383.846L3067.82 413.939L3089.73 472.512Z" fill="none" opacity="1" stroke="#00f6ff" stroke-linecap="butt" stroke-linejoin="round" stroke-width="2"/>
<path d="M3207.33 338.516C3207.33 338.516 3174.1 361.403 3159.14 366.189C3144.19 370.974 3123.67 376.835 3117.8 376.018C3111.93 375.201 3078.48 389.299 3073.15 391.385C3067.81 393.471 3064.32 396.745 3064.32 396.745L3038.08 362.526C3038.08 362.526 3047.92 353.059 3049.37 342.945C3050.83 332.83 3047.82 309.399 3051.36 296.843C3054.91 284.287 3066.39 266.719 3066.39 266.719L3067.97 287.595L3081.94 328.943L3096.05 323.252L3088.52 303.815L3132.6 302.354C3132.6 302.354 3173.72 303.432 3182.23 300.07C3190.75 296.707 3194.86 297.467 3194.86 297.467" fill="none" opacity="1" stroke="#00f6ff" stroke-linecap="butt" stroke-linejoin="round" stroke-width="2"/>
<path d="M1301.21 752.835L1184.25 626.243L1191.36 686.33L1253.1 772.624L1301.21 752.835Z" fill="none" opacity="1" stroke="#00f6ff" stroke-linecap="butt" stroke-linejoin="round" stroke-width="2"/>
<path d="M1384.53 566.084L1532.21 502.197L1523.51 479.781L1375.86 541.93L1384.53 566.084Z" fill="none" opacity="1" stroke="#00f6ff" stroke-linecap="butt" stroke-linejoin="round" stroke-width="2"/>
<path d="M587.239 870.987L628.443 850.926L639.346 766.791L551.204 811.157L587.239 870.987Z" fill="none" opacity="1" stroke="#00f6ff" stroke-linecap="butt" stroke-linejoin="round" stroke-width="2"/>
<path d="M446.001 927.283L572.369 870.73L515.726 790.721L420.975 833.63L446.001 927.283Z" fill="none" opacity="1" stroke="#00f6ff" stroke-linecap="butt" stroke-linejoin="round" stroke-width="2"/>
<path d="M378.979 962.088L421.803 942.741L421.502 888.477L385.446 892.435L362.743 934.166L378.979 962.088Z" fill="none" opacity="1" stroke="#00f6ff" stroke-linecap="butt" stroke-linejoin="round" stroke-width="2"/>
<path d="M346.184 923.493L371.677 885.567L339.29 865.904L317.134 902.98L346.184 923.493Z" fill="none" opacity="1" stroke="#00f6ff" stroke-linecap="butt" stroke-linejoin="round" stroke-width="2"/>
<path d="M385.354 880.258L415.765 873.415L410.162 847.152L373.956 821.084L352.361 854.646L385.354 880.258Z" fill="none" opacity="1" stroke="#00f6ff" stroke-linecap="butt" stroke-linejoin="round" stroke-width="2"/>
<path d="M412.817 826.662L445.578 811.705L403.849 778.802L381.704 809.134L412.817 826.662Z" fill="none" opacity="1" stroke="#00f6ff" stroke-linecap="butt" stroke-linejoin="round" stroke-width="2"/>
<path d="M458.627 795.716L502.409 777.721L441.391 742.585L424.083 772.595L458.627 795.716Z" fill="none" opacity="1" stroke="#00f6ff" stroke-linecap="butt" stroke-linejoin="round" stroke-width="2"/>
<path d="M406.098 758.506C406.098 758.506 417.646 760.208 422.219 751.527C426.792 742.846 425.461 726.014 425.461 726.014C425.461 726.014 415.279 720.913 409.391 729.975C403.503 739.037 401.687 751.387 401.687 751.387L406.098 758.506Z" fill="none" opacity="1" stroke="#00f6ff" stroke-linecap="butt" stroke-linejoin="round" stroke-width="2"/>
<path d="M385.467 746.186L404.936 713.393L343.595 673.42L323.438 705.295L385.467 746.186Z" fill="none" opacity="1" stroke="#00f6ff" stroke-linecap="butt" stroke-linejoin="round" stroke-width="2"/>
<path d="M364.422 801.197L389.708 769.608L313.83 720.133L291.424 754.085L364.422 801.197Z" fill="none" opacity="1" stroke="#00f6ff" stroke-linecap="butt" stroke-linejoin="round" stroke-width="2"/>
<path d="M335.007 844.997L356.235 815.354L289.46 769.251L262.829 796.993L335.007 844.997Z" fill="none" opacity="1" stroke="#00f6ff" stroke-linecap="butt" stroke-linejoin="round" stroke-width="2"/>
<path d="M303.121 898.218L325.666 861.953L258.625 813.732L237.336 853.138L303.121 898.218Z" fill="none" opacity="1" stroke="#00f6ff" stroke-linecap="butt" stroke-linejoin="round" stroke-width="2"/>
<path d="M685.697 650.532L693.332 565.991L636.731 550.628L637.246 540.03L698.358 544.043C698.358 544.043 712.019 495.72 712.454 494.045C712.889 492.369 661.985 467.977 661.985 467.977L605.225 411.883L431.845 390.19L374.607 526.045L514.064 632.923L581.78 606.362L685.697 650.532Z" fill="none" opacity="1" stroke="#00f6ff" stroke-linecap="butt" stroke-linejoin="round" stroke-width="2"/>
<path d="M1157.41 1312.26L1173.66 1270.9C1173.66 1270.9 1132.17 1219.55 1127.13 1206.99C1122.1 1194.43 1091.27 1138.64 1091.27 1138.64C1091.27 1138.64 1072.8 1169.68 1080.84 1193.36C1088.88 1217.04 1105.92 1264.08 1105.92 1264.08L1157.41 1312.26Z" fill="none" opacity="1" stroke="#00f6ff" stroke-linecap="butt" stroke-linejoin="round" stroke-width="2"/>
<path d="M1154.23 1335.3L1102.33 1282.53L992.208 1320.65L1065.19 1391.9L1149.61 1360.38L1154.23 1335.3Z" fill="none" opacity="1" stroke="#00f6ff" stroke-linecap="butt" stroke-linejoin="round" stroke-width="2"/>
<path d="M1313.49 1311.49L1279.88 1273.37L1173.02 1326.71L1168.56 1350.68L1313.49 1311.49Z" fill="none" opacity="1" stroke="#00f6ff" stroke-linecap="butt" stroke-linejoin="round" stroke-width="2"/>
<path d="M1091.39 1262.93L1063.9 1206.08L938.265 1244.92L982.041 1301.84L1091.39 1262.93Z" fill="none" opacity="1" stroke="#00f6ff" stroke-linecap="butt" stroke-linejoin="round" stroke-width="2"/>
<path d="M1066.2 1188.56C1066.2 1188.56 1060.45 1170.46 1063.97 1156.75C1067.49 1143.04 1070.7 1128.38 1070.7 1128.38L896.16 1181.7L931.169 1232.49L1066.2 1188.56Z" fill="none" opacity="1" stroke="#00f6ff" stroke-linecap="butt" stroke-linejoin="round" stroke-width="2"/>
<path d="M1070.28 1102.29L1047.85 1067.97L917.299 1107.85L933.473 1148.87L1070.28 1102.29Z" fill="none" opacity="1" stroke="#00f6ff" stroke-linecap="butt" stroke-linejoin="round" stroke-width="2"/>
<path d="M922.558 1149.19L907.466 1109.92L874.381 1134.59L888.005 1165.93L922.558 1149.19Z" fill="none" opacity="1" stroke="#00f6ff" stroke-linecap="butt" stroke-linejoin="round" stroke-width="2"/>
<path d="M868.21 1168.02L859.843 1144.97L806.523 1147.21L833.808 1185.24L868.21 1168.02Z" fill="none" opacity="1" stroke="#00f6ff" stroke-linecap="butt" stroke-linejoin="round" stroke-width="2"/>
<path d="M956.254 1291.67L876.879 1192.02L841.638 1201.64L901.724 1290.1L956.254 1291.67Z" fill="none" opacity="1" stroke="#00f6ff" stroke-linecap="butt" stroke-linejoin="round" stroke-width="2"/>
<path d="M872.102 1282.72L785.521 1153.84C785.521 1153.84 762.266 1151.5 750.77 1158.06C739.274 1164.61 798.61 1271.11 798.61 1271.11L872.102 1282.72Z" fill="none" opacity="1" stroke="#00f6ff" stroke-linecap="butt" stroke-linejoin="round" stroke-width="2"/>
<path d="M925.962 1353.22L893.767 1304.69L821.415 1299.86L890.472 1380.23L925.962 1353.22Z" fill="none" opacity="1" stroke="#00f6ff" stroke-linecap="butt" stroke-linejoin="round" stroke-width="2"/>
<path d="M980.234 1317.63L918.994 1309.79L943.034 1342.55L980.234 1317.63Z" fill="none" opacity="1" stroke="#00f6ff" stroke-linecap="butt" stroke-linejoin="round" stroke-width="2"/>
<path d="M1046.98 1394.01L985.703 1333.2L951.015 1359.43L996.417 1413.21L1046.98 1394.01Z" fill="none" opacity="1" stroke="#00f6ff" stroke-linecap="butt" stroke-linejoin="round" stroke-width="2"/>
<path d="M975.411 1411.49L934.442 1368.36L907.658 1394.7L931.933 1433.16L975.411 1411.49Z" fill="none" opacity="1" stroke="#00f6ff" stroke-linecap="butt" stroke-linejoin="round" stroke-width="2"/>
<path d="M914.649 1436.55L892.25 1410.61L836.61 1453.46L837.504 1466.1L914.649 1436.55Z" fill="none" opacity="1" stroke="#00f6ff" stroke-linecap="butt" stroke-linejoin="round" stroke-width="2"/>
<path d="M823.775 1470.46L817.311 1462.08L800.038 1478.12L823.775 1470.46Z" fill="none" opacity="1" stroke="#00f6ff" stroke-linecap="butt" stroke-linejoin="round" stroke-width="2"/>
<path d="M810.932 1452.15L760.509 1377.49L725.079 1402.94L779.508 1481.83L810.932 1452.15Z" fill="none" opacity="1" stroke="#00f6ff" stroke-linecap="butt" stroke-linejoin="round" stroke-width="2"/>
<path d="M754.244 1363.44L717.527 1307.22L673.431 1327.84L717.456 1392.22L754.244 1363.44Z" fill="none" opacity="1" stroke="#00f6ff" stroke-linecap="butt" stroke-linejoin="round" stroke-width="2"/>
<path d="M840.611 1428.05L825.615 1441.91L733.833 1304.6L747.225 1295.8L840.611 1428.05Z" fill="none" opacity="1" stroke="#00f6ff" stroke-linecap="butt" stroke-linejoin="round" stroke-width="2"/>
<path d="M878.841 1394.39L801.27 1287.65L776.136 1279.45L762.81 1286.36L854.041 1419.93L878.841 1394.39Z" fill="none" opacity="1" stroke="#00f6ff" stroke-linecap="butt" stroke-linejoin="round" stroke-width="2"/>
<path d="M731.944 1171.34L642.53 1217.42L675.233 1243.96C675.233 1243.96 703.289 1243.57 727.211 1249.13C751.133 1254.69 775.422 1262.04 775.422 1262.04L731.944 1171.34Z" fill="none" opacity="1" stroke="#00f6ff" stroke-linecap="butt" stroke-linejoin="round" stroke-width="2"/>
<path d="M748.778 1272.97L666.668 1253.81L633.872 1232.89L666.575 1311.1L748.778 1272.97Z" fill="none" opacity="1" stroke="#00f6ff" stroke-linecap="butt" stroke-linejoin="round" stroke-width="2"/>
<path d="M1671.5 1232.24L1534.76 1277.55L1573.35 1319.75L1623.45 1338.99L1717.04 1274.74L1713.55 1242.4C1713.55 1242.4 1700.66 1247.03 1692.1 1242.72C1683.54 1238.4 1671.5 1232.24 1671.5 1232.24Z" fill="none" opacity="1" stroke="#00f6ff" stroke-linecap="butt" stroke-linejoin="round" stroke-width="2"/>
<path d="M1719.58 1294.03L1641.97 1344.05L1690.78 1364.76L1732.34 1337.13L1719.58 1294.03Z" fill="none" opacity="1" stroke="#00f6ff" stroke-linecap="butt" stroke-linejoin="round" stroke-width="2"/>
<path d="M1608.32 1364.04L1666.13 1386.89L1626.72 1434.43L1580.58 1412.63L1608.32 1364.04Z" fill="none" opacity="1" stroke="#00f6ff" stroke-linecap="butt" stroke-linejoin="round" stroke-width="2"/>
<path d="M1685.83 1394.76L1641.15 1443.26L1702.77 1538.03L1826.55 1498.05L1828.05 1443.4L1685.83 1394.76Z" fill="none" opacity="1" stroke="#00f6ff" stroke-linecap="butt" stroke-linejoin="round" stroke-width="2"/>
<path d="M1831.99 1285.48L1702.9 1376.86L1829.83 1420.54L1831.99 1285.48Z" fill="none" opacity="1" stroke="#00f6ff" stroke-linecap="butt" stroke-linejoin="round" stroke-width="2"/>
<path d="M1854.95 1283.75L1851.87 1420.39L1912.77 1426.52L1925.24 1344.27L1854.95 1283.75Z" fill="none" opacity="1" stroke="#00f6ff" stroke-linecap="butt" stroke-linejoin="round" stroke-width="2"/>
<path d="M1942.03 1355.95L1929.19 1430.04L1971.7 1443.08L1992.17 1396.9L1942.03 1355.95Z" fill="none" opacity="1" stroke="#00f6ff" stroke-linecap="butt" stroke-linejoin="round" stroke-width="2"/>
<path d="M1998.64 1287.09L1953.57 1339.27L1997.53 1375.17L2018.61 1321.21L1998.64 1287.09Z" fill="none" opacity="1" stroke="#00f6ff" stroke-linecap="butt" stroke-linejoin="round" stroke-width="2"/>
<path d="M2029.85 1341.06L2010.58 1387.92L2024.53 1400.66C2024.53 1400.66 2058.48 1379.89 2055.77 1376.97C2053.05 1374.04 2029.85 1341.06 2029.85 1341.06Z" fill="none" opacity="1" stroke="#00f6ff" stroke-linecap="butt" stroke-linejoin="round" stroke-width="2"/>
<path d="M1843.68 1451.61L1953.85 1460.58L1955.11 1465.4L1839.85 1561.19L1843.68 1451.61Z" fill="none" opacity="1" stroke="#00f6ff" stroke-linecap="butt" stroke-linejoin="round" stroke-width="2"/>
<path d="M1717.23 1548.8L1826.57 1513.52L1821.05 1574.95L1817.7 1579.02L1718.85 1552.89L1717.23 1548.8Z" fill="none" opacity="1" stroke="#00f6ff" stroke-linecap="butt" stroke-linejoin="round" stroke-width="2"/>
<path d="M1725.81 1578.51L1758.51 1626.39C1758.51 1626.39 1793.92 1598.55 1792.01 1596.61C1790.1 1594.67 1725.81 1578.51 1725.81 1578.51Z" fill="none" opacity="1" stroke="#00f6ff" stroke-linecap="butt" stroke-linejoin="round" stroke-width="2"/>
<path d="M1836.37 1594.59L1771.06 1650.12L1802.69 1688.13L1846.76 1662.72L1836.37 1594.59Z" fill="none" opacity="1" stroke="#00f6ff" stroke-linecap="butt" stroke-linejoin="round" stroke-width="2"/>
<path d="M1974.23 1480.72L1848.85 1582.82L1858.82 1597.92L1995.02 1622.49L1974.23 1480.72Z" fill="none" opacity="1" stroke="#00f6ff" stroke-linecap="butt" stroke-linejoin="round" stroke-width="2"/>
<path d="M1987.59 1466.64L2002.6 1532.22L2032.17 1528.94L2040.54 1463.08L1987.59 1466.64Z" fill="none" opacity="1" stroke="#00f6ff" stroke-linecap="butt" stroke-linejoin="round" stroke-width="2"/>
<path d="M2004.66 1407.45L1990.22 1444.7L2049.29 1446.3L2052.95 1403.07L2024.3 1420.62L2004.66 1407.45Z" fill="none" opacity="1" stroke="#00f6ff" stroke-linecap="butt" stroke-linejoin="round" stroke-width="2"/>
<path d="M2071.16 1387.97L2070.15 1442.65C2070.15 1442.65 2074.22 1446.14 2078.4 1445.25C2082.58 1444.37 2085.43 1439.8 2085.43 1439.8L2085.28 1389.85L2080.06 1385.41L2071.16 1387.97Z" fill="none" opacity="1" stroke="#00f6ff" stroke-linecap="butt" stroke-linejoin="round" stroke-width="2"/>
<path d="M2055.82 1471.35L2048.34 1538.13L2149.88 1590.52L2167.16 1476.94L2055.82 1471.35Z" fill="none" opacity="1" stroke="#00f6ff" stroke-linecap="butt" stroke-linejoin="round" stroke-width="2"/>
<path d="M2100.08 1235.7L2103.82 1437.69L2146.29 1446.02L2145.33 1232.99L2101.55 1232.38L2100.08 1235.7Z" fill="none" opacity="1" stroke="#00f6ff" stroke-linecap="butt" stroke-linejoin="round" stroke-width="2"/>
<path d="M2018.18 1228.87L2014.18 1275.74L2069.93 1368.5L2082.03 1372.05L2081.66 1231.15L2018.18 1228.87Z" fill="none" opacity="1" stroke="#00f6ff" stroke-linecap="butt" stroke-linejoin="round" stroke-width="2"/>
<path d="M1856.67 1226.4L1856.56 1262.25L1936.38 1326.88L1996.24 1264.42L1996.33 1227.07L1856.67 1226.4Z" fill="none" opacity="1" stroke="#00f6ff" stroke-linecap="butt" stroke-linejoin="round" stroke-width="2"/>
<path d="M2008.43 1553.19L2017.29 1622.52L2129.25 1651.55L2140.67 1610.53L2041.82 1547.49L2008.43 1553.19Z" fill="none" opacity="1" stroke="#00f6ff" stroke-linecap="butt" stroke-linejoin="round" stroke-width="2"/>
<path d="M2019.16 1639.62L2018.86 1691.85L2123.75 1715.06L2134.03 1667.33L2019.16 1639.62Z" fill="none" opacity="1" stroke="#00f6ff" stroke-linecap="butt" stroke-linejoin="round" stroke-width="2"/>
<path d="M2020.13 1711.34L2016.52 1738.06L2039.14 1761.69L2115.07 1758.56L2121.97 1728.86L2020.13 1711.34Z" fill="none" opacity="1" stroke="#00f6ff" stroke-linecap="butt" stroke-linejoin="round" stroke-width="2"/>
<path d="M2032.93 1778.37L2093.08 1838.34L2106.8 1777.19L2032.93 1778.37Z" fill="none" opacity="1" stroke="#00f6ff" stroke-linecap="butt" stroke-linejoin="round" stroke-width="2"/>
<path d="M2016.24 1799.11C2016.21 1802.66 2012.34 1836.53 2012.34 1836.53L2062.11 1843.31L2028.54 1794.5C2028.54 1794.5 2016.27 1795.57 2016.24 1799.11Z" fill="none" opacity="1" stroke="#00f6ff" stroke-linecap="butt" stroke-linejoin="round" stroke-width="2"/>
<path d="M1869.92 1614.88L1993.96 1744.28L2002.75 1736.77L1997.71 1639.63L1869.92 1614.88Z" fill="none" opacity="1" stroke="#00f6ff" stroke-linecap="butt" stroke-linejoin="round" stroke-width="2"/>
<path d="M1863.15 1635.44L1880.71 1756.65L1985.05 1756.67L1863.15 1635.44Z" fill="none" opacity="1" stroke="#00f6ff" stroke-linecap="butt" stroke-linejoin="round" stroke-width="2"/>
<path d="M1888.59 1828.13L1883.71 1772.37L1980.77 1776.31L2000.56 1799.31L1995.17 1841.7L1888.59 1828.13Z" fill="none" opacity="1" stroke="#00f6ff" stroke-linecap="butt" stroke-linejoin="round" stroke-width="2"/>
<path d="M1893.85 1844.43L1898.08 1896.65L1978.64 1911.29L1988.55 1859.28L1893.85 1844.43Z" fill="none" opacity="1" stroke="#00f6ff" stroke-linecap="butt" stroke-linejoin="round" stroke-width="2"/>
<path d="M2006.53 1855.01C2006.53 1855.01 2000.09 1903.33 2000.3 1906.57C2000.5 1909.82 2085.98 1917.97 2085.98 1917.97L2094.42 1863.44L2006.53 1855.01Z" fill="none" opacity="1" stroke="#00f6ff" stroke-linecap="butt" stroke-linejoin="round" stroke-width="2"/>
<path d="M2775.41 825.078L2806.72 880.368C2806.72 880.368 2639.27 986.54 2617.44 992.643C2595.62 998.746 2421.39 990.2 2421.39 990.2C2421.39 990.2 2491.97 973.263 2526.8 956.973C2561.63 940.683 2705 859.167 2705 859.167L2775.41 825.078Z" fill="none" opacity="1" stroke="#00f6ff" stroke-linecap="butt" stroke-linejoin="round" stroke-width="2"/>
<path d="M1498.98 1284.44L1464.85 1298.76L1461.86 1304.91L1501.08 1376.61L1527.53 1314.38L1505.65 1289.21L1498.98 1284.44Z" fill="none" opacity="1" stroke="#00f6ff" stroke-linecap="butt" stroke-linejoin="round" stroke-width="2"/>
<path d="M1540.35 1321.7L1511.55 1390.59L1558.79 1411.63L1591.77 1352.55L1563.63 1340.56L1540.35 1321.7Z" fill="none" opacity="1" stroke="#00f6ff" stroke-linecap="butt" stroke-linejoin="round" stroke-width="2"/>
<path d="M1442.22 1304.9L1382.27 1325.36L1434.5 1454.21L1492.41 1403.49L1439.53 1305.01" fill="none" opacity="1" stroke="#00f6ff" stroke-linecap="butt" stroke-linejoin="round" stroke-width="2"/>
<path d="M1363.14 1329.34L1248.79 1371.97L1267.27 1417.01L1417.07 1459.51L1363.14 1329.34Z" fill="none" opacity="1" stroke="#00f6ff" stroke-linecap="butt" stroke-linejoin="round" stroke-width="2"/>
<path d="M1403.15 1472.51L1274.41 1436.55L1311.91 1551.72L1323.06 1558.35L1403.15 1472.51Z" fill="none" opacity="1" stroke="#00f6ff" stroke-linecap="butt" stroke-linejoin="round" stroke-width="2"/>
<path d="M1498.34 1419.08L1447.44 1464.96L1449.76 1470.24L1535.71 1492.63L1498.34 1419.08Z" fill="none" opacity="1" stroke="#00f6ff" stroke-linecap="butt" stroke-linejoin="round" stroke-width="2"/>
<path d="M1516.9 1411.72L1552.87 1481.17C1552.87 1481.17 1557.49 1480 1562.35 1480.51C1567.2 1481.02 1576.51 1486.63 1576.51 1486.63L1612.38 1443.61L1516.9 1411.72Z" fill="none" opacity="1" stroke="#00f6ff" stroke-linecap="butt" stroke-linejoin="round" stroke-width="2"/>
<path d="M1484.89 1496.84L1531.29 1511.65C1531.29 1511.65 1527.76 1518.37 1531.83 1522.51C1535.91 1526.65 1541.14 1531.44 1541.14 1531.44L1539.97 1538.55L1466.85 1613.84L1426.7 1565.09L1484.89 1496.84Z" fill="none" opacity="1" stroke="#00f6ff" stroke-linecap="butt" stroke-linejoin="round" stroke-width="2"/>
<path d="M1464.95 1492.34L1422.28 1479.14L1334.52 1566.66L1367.92 1611.22L1464.95 1492.34Z" fill="none" opacity="1" stroke="#00f6ff" stroke-linecap="butt" stroke-linejoin="round" stroke-width="2"/>
<path d="M1418.17 1580.18L1371.29 1632.17L1408 1679.72L1460.04 1624.05L1418.17 1580.18Z" fill="none" opacity="1" stroke="#00f6ff" stroke-linecap="butt" stroke-linejoin="round" stroke-width="2"/>
<path d="M1628.73 1456.58L1586.69 1494.88C1586.69 1494.88 1591.04 1499.08 1591.39 1503.57C1591.74 1508.06 1589.66 1513.63 1589.66 1513.63L1680.17 1540.26L1628.73 1456.58Z" fill="none" opacity="1" stroke="#00f6ff" stroke-linecap="butt" stroke-linejoin="round" stroke-width="2"/>
<path d="M1575.9 1530.08L1671.75 1556.85L1626.84 1617.77L1575.9 1530.08Z" fill="none" opacity="1" stroke="#00f6ff" stroke-linecap="butt" stroke-linejoin="round" stroke-width="2"/>
<path d="M1559.56 1536.7L1552.33 1540.43L1481.5 1626.37L1541.8 1693.71L1611.56 1633.91L1559.56 1536.7Z" fill="none" opacity="1" stroke="#00f6ff" stroke-linecap="butt" stroke-linejoin="round" stroke-width="2"/>
<path d="M1466.37 1637.17L1422.14 1693.96L1466.52 1752.7L1521.76 1702.25L1466.37 1637.17Z" fill="none" opacity="1" stroke="#00f6ff" stroke-linecap="butt" stroke-linejoin="round" stroke-width="2"/>
<path d="M1409.45 1709.94L1361.3 1761.8L1402.88 1808.81L1453.87 1765.25L1409.45 1709.94Z" fill="none" opacity="1" stroke="#00f6ff" stroke-linecap="butt" stroke-linejoin="round" stroke-width="2"/>
<path d="M1465.6 1775.26L1414.11 1821.87L1455.86 1867.86L1506.31 1826.05L1465.6 1775.26Z" fill="none" opacity="1" stroke="#00f6ff" stroke-linecap="butt" stroke-linejoin="round" stroke-width="2"/>
<path d="M1534.23 1718.07L1482.23 1764.61L1520.39 1814.99L1577.52 1767.45L1534.23 1718.07Z" fill="none" opacity="1" stroke="#00f6ff" stroke-linecap="butt" stroke-linejoin="round" stroke-width="2"/>
<path d="M1616.73 1649.53L1550.93 1703.77L1592.59 1758.38L1652.8 1706.37L1616.73 1649.53Z" fill="none" opacity="1" stroke="#00f6ff" stroke-linecap="butt" stroke-linejoin="round" stroke-width="2"/>
<path d="M1691.78 1560.68L1636.34 1631.77L1668.33 1696.06L1739.57 1635.64L1691.78 1560.68Z" fill="none" opacity="1" stroke="#00f6ff" stroke-linecap="butt" stroke-linejoin="round" stroke-width="2"/>
<path d="M1303.65 1718.73L1280.58 1733.58L1320.79 1787.43L1340.54 1762.37L1303.65 1718.73Z" fill="none" opacity="1" stroke="#00f6ff" stroke-linecap="butt" stroke-linejoin="round" stroke-width="2"/>
<path d="M1271.92 1751.54L1198.02 1833.25L1250.07 1859.19L1300.62 1795.68L1271.92 1751.54Z" fill="none" opacity="1" stroke="#00f6ff" stroke-linecap="butt" stroke-linejoin="round" stroke-width="2"/>
<path d="M1314.04 1813.02L1267.54 1870.91L1379.27 1928.99L1392.27 1921.42L1314.04 1813.02Z" fill="none" opacity="1" stroke="#00f6ff" stroke-linecap="butt" stroke-linejoin="round" stroke-width="2"/>
<path d="M1353.6 1775.47L1329.67 1797.24L1405.05 1913.54L1441.56 1878.63L1353.6 1775.47Z" fill="none" opacity="1" stroke="#00f6ff" stroke-linecap="butt" stroke-linejoin="round" stroke-width="2"/>
<path d="M1241.03 1687.77L1150.7 1746.79L1186.22 1818.51L1260.16 1726.53L1241.03 1687.77Z" fill="none" opacity="1" stroke="#00f6ff" stroke-linecap="butt" stroke-linejoin="round" stroke-width="2"/>
<path d="M1290.07 1573.36L1255.54 1598.98L1271.56 1644.44L1344.21 1628.37L1290.07 1573.36Z" fill="none" opacity="1" stroke="#00f6ff" stroke-linecap="butt" stroke-linejoin="round" stroke-width="2"/>
<path d="M1237.51 1610.52L1127.01 1683.73L1144.16 1723.83L1258.38 1652.36L1237.51 1610.52Z" fill="none" opacity="1" stroke="#00f6ff" stroke-linecap="butt" stroke-linejoin="round" stroke-width="2"/>
<path d="M1329.41 1653.8L1324.95 1651.04L1291.16 1662.91L1299.55 1686.08L1329.41 1653.8Z" fill="none" opacity="1" stroke="#00f6ff" stroke-linecap="butt" stroke-linejoin="round" stroke-width="2"/>
<path d="M1274.81 1670.65L1261.69 1675.29L1263.3 1686.69C1263.3 1686.69 1258.33 1690.07 1260.76 1696.29C1263.19 1702.5 1267.49 1706.55 1269.92 1707.4C1272.36 1708.25 1270.29 1719.23 1279.76 1710.17C1289.22 1701.11 1292.21 1696.87 1292.21 1696.87L1288.65 1686.44L1285.8 1680.37L1279.8 1680.28L1274.81 1670.65Z" fill="none" opacity="1" stroke="#00f6ff" stroke-linecap="butt" stroke-linejoin="round" stroke-width="2"/>
<path d="M1359.36 1643.71L1308.32 1704.99L1352.04 1749.48L1400.37 1693.26L1359.36 1643.71Z" fill="none" opacity="1" stroke="#00f6ff" stroke-linecap="butt" stroke-linejoin="round" stroke-width="2"/>
<path d="M1256.55 1444.97L1206.61 1462.01L1248.91 1578.78L1292.3 1550.11L1291.82 1540.71L1256.55 1444.97Z" fill="none" opacity="1" stroke="#00f6ff" stroke-linecap="butt" stroke-linejoin="round" stroke-width="2"/>
<path d="M1213.16 1548.43L1095.18 1616.87L1121.45 1671.19L1229.91 1592.48L1213.16 1548.43Z" fill="none" opacity="1" stroke="#00f6ff" stroke-linecap="butt" stroke-linejoin="round" stroke-width="2"/>
<path d="M1190.48 1466.32L1120.18 1489.08L1144.52 1567.41L1212.79 1529.41L1190.48 1466.32Z" fill="none" opacity="1" stroke="#00f6ff" stroke-linecap="butt" stroke-linejoin="round" stroke-width="2"/>
<path d="M1101.18 1497.14L1055.72 1509.1L1086.08 1599.22L1127.45 1574.4L1101.18 1497.14Z" fill="none" opacity="1" stroke="#00f6ff" stroke-linecap="butt" stroke-linejoin="round" stroke-width="2"/>
<path d="M1058.11 1574.04L1004.31 1605.67L1013.89 1643.99L1073.07 1608.28L1058.11 1574.04Z" fill="none" opacity="1" stroke="#00f6ff" stroke-linecap="butt" stroke-linejoin="round" stroke-width="2"/>
<path d="M1079.94 1624.33L977.633 1686.81L967.023 1711.22L1064.62 1763.19L1104.55 1679.06L1079.94 1624.33Z" fill="none" opacity="1" stroke="#00f6ff" stroke-linecap="butt" stroke-linejoin="round" stroke-width="2"/>
<path d="M1111.85 1702.34L1081.66 1772.51L1167.51 1820.61L1111.85 1702.34Z" fill="none" opacity="1" stroke="#00f6ff" stroke-linecap="butt" stroke-linejoin="round" stroke-width="2"/>
<path d="M1663.95 1738.48L1541.05 1831.37L1590.88 1875.56L1679.35 1765.67L1663.95 1738.48Z" fill="none" opacity="1" stroke="#00f6ff" stroke-linecap="butt" stroke-linejoin="round" stroke-width="2"/>
<path d="M1687.68 1783.98L1607.24 1882.92L1646.1 1912.91L1712.45 1824.5L1687.68 1783.98Z" fill="none" opacity="1" stroke="#00f6ff" stroke-linecap="butt" stroke-linejoin="round" stroke-width="2"/>
<path d="M1721.73 1842.61L1661.37 1922.74L1693.33 1950.28L1738.09 1883.04L1721.73 1842.61Z" fill="none" opacity="1" stroke="#00f6ff" stroke-linecap="butt" stroke-linejoin="round" stroke-width="2"/>
<path d="M1707.6 1774.7L1723.78 1818.51L1867.88 1827.47L1865.08 1775L1707.6 1774.7Z" fill="none" opacity="1" stroke="#00f6ff" stroke-linecap="butt" stroke-linejoin="round" stroke-width="2"/>
<path d="M1751.32 1667.75L1678.17 1723.86L1689.99 1759.72L1788.6 1757.53L1786.23 1695.36L1751.32 1667.75Z" fill="none" opacity="1" stroke="#00f6ff" stroke-linecap="butt" stroke-linejoin="round" stroke-width="2"/>
<path d="M1845.68 1678.61L1808.91 1702.97L1806.81 1759.44L1861.37 1756.5L1845.68 1678.61Z" fill="none" opacity="1" stroke="#00f6ff" stroke-linecap="butt" stroke-linejoin="round" stroke-width="2"/>
<path d="M1736.78 1833.59L1758.46 1878.17L1876.63 1889.01L1871.44 1846.63L1736.78 1833.59Z" fill="none" opacity="1" stroke="#00f6ff" stroke-linecap="butt" stroke-linejoin="round" stroke-width="2"/>
<path d="M1766.91 1897.02L1807.25 1974.59C1807.25 1974.59 1830.67 1960.84 1843.68 1946.98C1856.69 1933.12 1874.7 1910.9 1874.7 1910.9L1766.91 1897.02Z" fill="none" opacity="1" stroke="#00f6ff" stroke-linecap="butt" stroke-linejoin="round" stroke-width="2"/>
<path d="M1748.16 1905L1679.56 1998.03C1679.56 1998.03 1703.1 2001.29 1730.18 1999.51C1757.25 1997.74 1789.75 1990.12 1789.75 1990.12L1748.16 1905Z" fill="none" opacity="1" stroke="#00f6ff" stroke-linecap="butt" stroke-linejoin="round" stroke-width="2"/>
<path d="M1895.61 1910.68C1895.61 1910.68 1880.73 1934.07 1870.39 1944.64C1860.05 1955.21 1834.62 1981.37 1834.62 1981.37C1834.62 1981.37 1839.56 1989.74 1841.13 1994.69C1842.7 1999.65 1841.38 2010.03 1841.38 2010.03L1960.77 2010.95L1978.02 1925.26L1895.61 1910.68Z" fill="none" opacity="1" stroke="#00f6ff" stroke-linecap="butt" stroke-linejoin="round" stroke-width="2"/>
<path d="M2052.44 2025.43L1971.83 2025.24L1957.51 2086.04L2040.26 2097.36L2055.1 2029.31L2052.44 2025.43Z" fill="none" opacity="1" stroke="#00f6ff" stroke-linecap="butt" stroke-linejoin="round" stroke-width="2"/>
<path d="M2078.19 1941.62L1993.09 1929.99L1975.38 2009L2059.71 2008.78L2078.19 1941.62Z" fill="none" opacity="1" stroke="#00f6ff" stroke-linecap="butt" stroke-linejoin="round" stroke-width="2"/>
<path d="M1953.14 2023.55L1846.53 2028.01L1862.49 2065.47L1940.16 2078.45L1953.14 2023.55Z" fill="none" opacity="1" stroke="#00f6ff" stroke-linecap="butt" stroke-linejoin="round" stroke-width="2"/>
<path d="M1925.69 2105.68L1844.4 2081.85L1825.67 2143.14L1883.34 2197.83L1925.69 2105.68Z" fill="none" opacity="1" stroke="#00f6ff" stroke-linecap="butt" stroke-linejoin="round" stroke-width="2"/>
<path d="M2040.81 2121.64L1949.73 2104.41L1900.58 2209.32L2012.29 2248.26L2040.81 2121.64Z" fill="none" opacity="1" stroke="#00f6ff" stroke-linecap="butt" stroke-linejoin="round" stroke-width="2"/>
<path d="M1823.61 2090.97L1799.72 2047.33L1755.39 2092.01L1807.68 2129.75L1823.61 2090.97Z" fill="none" opacity="1" stroke="#00f6ff" stroke-linecap="butt" stroke-linejoin="round" stroke-width="2"/>
<path d="M1772.7 2011.67C1772.7 2011.67 1745.35 2020.67 1728.38 2019.98C1711.41 2019.29 1666.39 2015.48 1666.39 2015.48L1739.81 2083L1787.25 2041.45L1772.7 2011.67Z" fill="none" opacity="1" stroke="#00f6ff" stroke-linecap="butt" stroke-linejoin="round" stroke-width="2"/>
<path d="M1804.22 2154.34L1742.23 2108.63L1694.1 2154.69L1781.71 2227.06L1804.22 2154.34Z" fill="none" opacity="1" stroke="#00f6ff" stroke-linecap="butt" stroke-linejoin="round" stroke-width="2"/>
<path d="M1724.15 2094.95L1571.79 1975.9L1527.41 2033.96L1677.54 2140.89L1724.15 2094.95Z" fill="none" opacity="1" stroke="#00f6ff" stroke-linecap="butt" stroke-linejoin="round" stroke-width="2"/>
<path d="M1679.69 1960.34L1647.63 1939.73L1612.59 1989.93L1657.62 1995.58L1679.69 1960.34Z" fill="none" opacity="1" stroke="#00f6ff" stroke-linecap="butt" stroke-linejoin="round" stroke-width="2"/>
<path d="M1631.75 1924.01L1598.63 1896.94L1558.87 1949.27L1596.4 1975.21L1631.75 1924.01Z" fill="none" opacity="1" stroke="#00f6ff" stroke-linecap="butt" stroke-linejoin="round" stroke-width="2"/>
<path d="M1582.9 1887.51L1525.19 1845.59L1479 1886.69L1548.86 1935.19L1582.9 1887.51Z" fill="none" opacity="1" stroke="#00f6ff" stroke-linecap="butt" stroke-linejoin="round" stroke-width="2"/>
<path d="M1552.71 1967.14L1463.4 1899.01L1405.14 1947.88L1511.69 2026.17L1552.71 1967.14Z" fill="none" opacity="1" stroke="#00f6ff" stroke-linecap="butt" stroke-linejoin="round" stroke-width="2"/>
<path d="M3103.15 767.396C3103.15 767.396 2984.09 776.523 2956.32 782.948C2928.55 789.374 2803.23 821.753 2803.23 821.753L2829.66 880.204L3031.21 822.466C3031.21 822.466 3079.44 812.33 3092.18 790.624C3104.92 768.917 3103.15 767.396 3103.15 767.396Z" fill="none" opacity="1" stroke="#00f6ff" stroke-linecap="butt" stroke-linejoin="round" stroke-width="2"/>
<path d="M1228.96 1376.24L1175.63 1390.51L1197.93 1447.52L1252.58 1432.73L1228.96 1376.24Z" fill="none" opacity="1" stroke="#00f6ff" stroke-linecap="butt" stroke-linejoin="round" stroke-width="2"/>
<path d="M1163.32 1397.8L1091.56 1418.45L1110.42 1472.1L1181.08 1451.64L1163.32 1397.8Z" fill="none" opacity="1" stroke="#00f6ff" stroke-linecap="butt" stroke-linejoin="round" stroke-width="2"/>
<path d="M1078.98 1422.67L1033.32 1436.99L1047.6 1495.14L1096.36 1479.13L1078.98 1422.67Z" fill="none" opacity="1" stroke="#00f6ff" stroke-linecap="butt" stroke-linejoin="round" stroke-width="2"/>
<path d="M1016.83 1444.74L955.202 1468.13L971.636 1517.67L1035.21 1495.63L1016.83 1444.74Z" fill="none" opacity="1" stroke="#00f6ff" stroke-linecap="butt" stroke-linejoin="round" stroke-width="2"/>
<path d="M1037.62 1515.62L981.094 1535.84L996.623 1586.68L1053.66 1558.14L1037.62 1515.62Z" fill="none" opacity="1" stroke="#00f6ff" stroke-linecap="butt" stroke-linejoin="round" stroke-width="2"/>
<path d="M960.553 1545.09L902.248 1564.29L923.755 1634.23L981.089 1600.79L960.553 1545.09Z" fill="none" opacity="1" stroke="#00f6ff" stroke-linecap="butt" stroke-linejoin="round" stroke-width="2"/>
<path d="M932.202 1478.04L876.717 1494.8L897.324 1543.98L956.644 1529.39L932.202 1478.04Z" fill="none" opacity="1" stroke="#00f6ff" stroke-linecap="butt" stroke-linejoin="round" stroke-width="2"/>
<path d="M860.313 1495.37L796.276 1518.65L812.637 1572.06L876.857 1550.39L860.313 1495.37Z" fill="none" opacity="1" stroke="#00f6ff" stroke-linecap="butt" stroke-linejoin="round" stroke-width="2"/>
<path d="M885.935 1565.66L818.534 1582.31L799.382 1623.14L874.285 1665.15L913.334 1650.1L885.935 1565.66Z" fill="none" opacity="1" stroke="#00f6ff" stroke-linecap="butt" stroke-linejoin="round" stroke-width="2"/>
<path d="M987.008 1618.38L893.74 1674.18L951.576 1703.79L961.367 1673.81L1000.42 1654.52L987.008 1618.38Z" fill="none" opacity="1" stroke="#00f6ff" stroke-linecap="butt" stroke-linejoin="round" stroke-width="2"/>
<path d="M780.514 1524.85L672.141 1559.7L781.433 1621.6L804.204 1582.48L780.514 1524.85Z" fill="none" opacity="1" stroke="#00f6ff" stroke-linecap="butt" stroke-linejoin="round" stroke-width="2"/>
<path d="M750.497 1463.96L667.558 1485.53L647.132 1528.49L763.653 1489.36L750.497 1463.96Z" fill="none" opacity="1" stroke="#00f6ff" stroke-linecap="butt" stroke-linejoin="round" stroke-width="2"/>
<path d="M733.437 1446.98L664.985 1468.99L632.676 1341.08L657.881 1338.11L733.437 1446.98Z" fill="none" opacity="1" stroke="#00f6ff" stroke-linecap="butt" stroke-linejoin="round" stroke-width="2"/>
<path d="M631.535 1409.51L563.599 1433.18L647.891 1491.57L631.535 1409.51Z" fill="none" opacity="1" stroke="#00f6ff" stroke-linecap="butt" stroke-linejoin="round" stroke-width="2"/>
<path d="M539.056 1436.71L453.82 1464.13L533.406 1495.75L582.508 1464.07L539.056 1436.71Z" fill="none" opacity="1" stroke="#00f6ff" stroke-linecap="butt" stroke-linejoin="round" stroke-width="2"/>
<path d="M594.53 1476.72L537.593 1511.17L423.205 1477.87L457.201 1590.32L622.838 1540.33L641.312 1501.58L594.53 1476.72Z" fill="none" opacity="1" stroke="#00f6ff" stroke-linecap="butt" stroke-linejoin="round" stroke-width="2"/>
<path d="M508.176 1384.11L612.955 1346.51L627.877 1389.02L544.633 1419.56L508.176 1384.11Z" fill="none" opacity="1" stroke="#00f6ff" stroke-linecap="butt" stroke-linejoin="round" stroke-width="2"/>
<path d="M494.418 1395.28L407.138 1426.38L419.041 1458.29L525.395 1426.48C525.395 1426.48 510.8 1419.71 505.963 1413.37C501.127 1407.03 494.418 1395.28 494.418 1395.28Z" fill="none" opacity="1" stroke="#00f6ff" stroke-linecap="butt" stroke-linejoin="round" stroke-width="2"/>
<path d="M654.135 1540.45C654.135 1540.45 648.585 1532.19 642.419 1538.27C636.253 1544.35 638.071 1553.13 641.879 1554.76C645.688 1556.39 655.868 1552.89 655.868 1552.89L654.135 1540.45Z" fill="none" opacity="1" stroke="#00f6ff" stroke-linecap="butt" stroke-linejoin="round" stroke-width="2"/>
<path d="M589.724 1234.19L609.254 1229.65L649.676 1317.18L628.3 1326.73L616.87 1277.23L589.724 1234.19Z" fill="none" opacity="1" stroke="#00f6ff" stroke-linecap="butt" stroke-linejoin="round" stroke-width="2"/>
<path d="M503.866 1259.33L545.884 1351.74L612.896 1328.03L604.866 1284.01L569.588 1238.04L503.866 1259.33Z" fill="none" opacity="1" stroke="#00f6ff" stroke-linecap="butt" stroke-linejoin="round" stroke-width="2"/>
<path d="M499.427 1369.74L529.682 1356.88L486.251 1261.43C486.251 1261.43 387.621 1271 386.825 1270.83C386.03 1270.66 390.419 1284.35 393.789 1286.44C397.159 1288.53 449.387 1325.22 449.387 1325.22L486.793 1351.35L499.427 1369.74Z" fill="none" opacity="1" stroke="#00f6ff" stroke-linecap="butt" stroke-linejoin="round" stroke-width="2"/>
<path d="M434.897 1240.89L508.459 1228.22L504.848 1209.4L469.64 1189.55L434.897 1240.89Z" fill="none" opacity="1" stroke="#00f6ff" stroke-linecap="butt" stroke-linejoin="round" stroke-width="2"/>
<path d="M524.44 1224.14L557.11 1213.83L540.959 1189.56L518.951 1201.19L524.44 1224.14Z" fill="none" opacity="1" stroke="#00f6ff" stroke-linecap="butt" stroke-linejoin="round" stroke-width="2"/>
<path d="M506.242 1199.37L474.388 1173.04L498.459 1145.7L527.968 1170.75L506.242 1199.37Z" fill="none" opacity="1" stroke="#00f6ff" stroke-linecap="butt" stroke-linejoin="round" stroke-width="2"/>
<path d="M454.701 1160.09L475.725 1127L371.522 1068.2L366.412 1107.39L454.701 1160.09Z" fill="none" opacity="1" stroke="#00f6ff" stroke-linecap="butt" stroke-linejoin="round" stroke-width="2"/>
<path d="M323.06 1182.72L336.299 1123.56L301.411 1138.16L323.06 1182.72Z" fill="none" opacity="1" stroke="#00f6ff" stroke-linecap="butt" stroke-linejoin="round" stroke-width="2"/>
<path d="M345.343 1236.93L401.067 1244.72C401.067 1244.72 446.911 1169.37 446.654 1170.26C446.396 1171.14 356.209 1124.91 356.209 1124.91L338.65 1182.39L349.685 1203.98L330.962 1214.73L345.343 1236.93Z" fill="none" opacity="1" stroke="#00f6ff" stroke-linecap="butt" stroke-linejoin="round" stroke-width="2"/>
<path d="M295.613 1122.36L345.609 1102.69L353.622 1064.13L281.429 1095.93L295.613 1122.36Z" fill="none" opacity="1" stroke="#00f6ff" stroke-linecap="butt" stroke-linejoin="round" stroke-width="2"/>
<path d="M350.549 1052.27L277.957 1081.28L275.44 1079.93L257.341 1038.32L333.274 1011.61L350.549 1052.27Z" fill="none" opacity="1" stroke="#00f6ff" stroke-linecap="butt" stroke-linejoin="round" stroke-width="2"/>
<path d="M363.027 1035.02L376.135 1016.38L367.297 996.67L349.422 1005.54L361.185 1035.36L363.027 1035.02Z" fill="none" opacity="1" stroke="#00f6ff" stroke-linecap="butt" stroke-linejoin="round" stroke-width="2"/>
<path d="M444.713 980.278L431.247 965.371L380.806 990.537L390.798 1006.73L444.713 980.278Z" fill="none" opacity="1" stroke="#00f6ff" stroke-linecap="butt" stroke-linejoin="round" stroke-width="2"/>
<path d="M486.129 1042.01L455.48 997.823L409.338 1015.54L484.788 1044.96L486.129 1042.01Z" fill="none" opacity="1" stroke="#00f6ff" stroke-linecap="butt" stroke-linejoin="round" stroke-width="2"/>
<path d="M551.1 1013.68L476.27 980.171L467.69 991.291L521.542 1061.94L551.1 1013.68Z" fill="none" opacity="1" stroke="#00f6ff" stroke-linecap="butt" stroke-linejoin="round" stroke-width="2"/>
<path d="M627.935 945.876L628.959 880.914L459.988 953.751L559.21 1003.06L627.935 945.876Z" fill="none" opacity="1" stroke="#00f6ff" stroke-linecap="butt" stroke-linejoin="round" stroke-width="2"/>
<path d="M512.259 1078.55L483.369 1113.64L376.197 1048.57L393.039 1020.71L512.259 1078.55Z" fill="none" opacity="1" stroke="#00f6ff" stroke-linecap="butt" stroke-linejoin="round" stroke-width="2"/>
<path d="M557.405 1154.88L560.103 1142.07L527.283 1099.94L506.53 1130.37L540.91 1165.03L557.405 1154.88Z" fill="none" opacity="1" stroke="#00f6ff" stroke-linecap="butt" stroke-linejoin="round" stroke-width="2"/>
<path d="M599.166 1197.7L578.355 1168.7L566.161 1169.44L552.714 1181.79L570.044 1210.43L599.166 1197.7Z" fill="none" opacity="1" stroke="#00f6ff" stroke-linecap="butt" stroke-linejoin="round" stroke-width="2"/>
<path d="M611.737 1183.9L624.17 1122.7L575.693 1105.54L559.403 1116.83L607.971 1189.64L611.737 1183.9Z" fill="none" opacity="1" stroke="#00f6ff" stroke-linecap="butt" stroke-linejoin="round" stroke-width="2"/>
<path d="M674.944 1072.08L654.973 1053.12L599.48 1096.14L636.594 1104.61L674.944 1072.08Z" fill="none" opacity="1" stroke="#00f6ff" stroke-linecap="butt" stroke-linejoin="round" stroke-width="2"/>
<path d="M645.057 1038.43L588.04 1012.98L577.528 1024.24L606.093 1072.3L645.057 1038.43Z" fill="none" opacity="1" stroke="#00f6ff" stroke-linecap="butt" stroke-linejoin="round" stroke-width="2"/>
<path d="M593.523 1076.53L568.425 1038.09L535.363 1080.34L549.179 1102.82L593.523 1076.53Z" fill="none" opacity="1" stroke="#00f6ff" stroke-linecap="butt" stroke-linejoin="round" stroke-width="2"/>
<path d="M733.393 1036.83L720.758 1008.86L669.868 1041.5L691.775 1063.59L733.393 1036.83Z" fill="none" opacity="1" stroke="#00f6ff" stroke-linecap="butt" stroke-linejoin="round" stroke-width="2"/>
<path d="M714.987 990.713L703.337 969.658L634.619 1018.48L660.969 1028.27L714.987 990.713Z" fill="none" opacity="1" stroke="#00f6ff" stroke-linecap="butt" stroke-linejoin="round" stroke-width="2"/>
<path d="M693.293 956.849L682.693 932.288L594.561 1002.16L620.676 1010.61L693.293 956.849Z" fill="none" opacity="1" stroke="#00f6ff" stroke-linecap="butt" stroke-linejoin="round" stroke-width="2"/>
<path d="M3026.13 338.341C3026.13 338.341 3033.57 334.789 3035.1 323.549C3036.63 312.309 3036.13 302.883 3038.2 296.203C3040.27 289.522 3059.71 233.806 3059.71 233.806L3024 219.093L3028.05 187.892L3045.67 184.563L3049.51 205.272L3084.04 213.522L3069.61 234.92L3081.55 248.376L3080.57 264.175L3082.51 279.174L3164.62 285.071C3164.62 285.071 3173.34 278.985 3177.85 276.234C3182.36 273.482 3181.56 270.55 3177.37 260.466C3173.17 250.382 3160.74 221.158 3137.25 205.592C3113.77 190.025 3049.9 155.127 3043.99 154.518C3038.08 153.908 3014.73 158.393 3010.54 162.464C3006.35 166.536 2959.77 208.239 2959.77 208.239L3010.08 312.145L3026.13 338.341Z" fill="none" opacity="1" stroke="#00f6ff" stroke-linecap="butt" stroke-linejoin="round" stroke-width="2"/>
</g>
</svg>
